<?xml version="1.0" standalone="no"?>
<!DOCTYPE svg PUBLIC "-//W3C//DTD SVG 1.1//EN" "http://www.w3.org/Graphics/SVG/1.1/DTD/svg11.dtd" >
<svg xmlns="http://www.w3.org/2000/svg">
<metadata>
Created by FontForge 20120731 at Mon Jul 27 20:25:24 2015
 By Ads
</metadata>
<defs>
<font id="iconfont" horiz-adv-x="1024" >
  <font-face 
    font-family="iconfont"
    font-weight="500"
    font-stretch="normal"
    units-per-em="1024"
    panose-1="2 0 6 3 0 0 0 0 0 0"
    ascent="812"
    descent="-212"
    x-height="792"
    bbox="0 -224.062 1090 812"
    underline-thickness="50"
    underline-position="-100"
    unicode-range="U+0078-F01CB"
  />
<missing-glyph horiz-adv-x="374" 
d="M34 0v682h272v-682h-272zM68 34h204v614h-204v-614z" />
    <glyph glyph-name=".notdef" horiz-adv-x="374" 
d="M34 0v682h272v-682h-272zM68 34h204v614h-204v-614z" />
    <glyph glyph-name=".null" horiz-adv-x="0" 
 />
    <glyph glyph-name="nonmarkingreturn" horiz-adv-x="341" 
 />
    <glyph glyph-name="x" unicode="x" horiz-adv-x="1001" 
d="M281 543q-27 -1 -53 -1h-83q-18 0 -36.5 -6t-32.5 -18.5t-23 -32t-9 -45.5v-76h912v41q0 16 -0.5 30t-0.5 18q0 13 -5 29t-17 29.5t-31.5 22.5t-49.5 9h-133v-97h-438v97zM955 310v-52q0 -23 0.5 -52t0.5 -58t-10.5 -47.5t-26 -30t-33 -16t-31.5 -4.5q-14 -1 -29.5 -0.5
t-29.5 0.5h-32l-45 128h-439l-44 -128h-29h-34q-20 0 -45 1q-25 0 -41 9.5t-25.5 23t-13.5 29.5t-4 30v167h911zM163 247q-12 0 -21 -8.5t-9 -21.5t9 -21.5t21 -8.5q13 0 22 8.5t9 21.5t-9 21.5t-22 8.5zM316 123q-8 -26 -14 -48q-5 -19 -10.5 -37t-7.5 -25t-3 -15t1 -14.5
t9.5 -10.5t21.5 -4h37h67h81h80h64h36q23 0 34 12t2 38q-5 13 -9.5 30.5t-9.5 34.5q-5 19 -11 39h-368zM336 498v228q0 11 2.5 23t10 21.5t20.5 15.5t34 6h188q31 0 51.5 -14.5t20.5 -52.5v-227h-327z" />
    <glyph glyph-name="uni3432" unicode="&#x3432;" 
d="M937 289q-2 2 -5 7t-13 16.5t-20 21t-24 16.5t-27 7q-9 0 -19.5 -3.5t-19.5 -10t-18 -14t-16 -15t-12 -14t-8 -10.5l-3 -4q0 1 -1 2.5t-4.5 6.5t-7.5 10t-9.5 11.5t-11.5 12t-13 11t-14.5 9.5t-15.5 6.5t-16 1.5q-49 -1 -79 -64v-272q-3 -28 -5 -41.5t-7 -27.5
q-9 -26 -32 -46q-22 -20 -46 -28q-19 -6 -51 -6q-15 0 -28 2t-25 7q-23 8 -39 25q-8 8 -14 18t-10 21q-9 24 -9 60v26h75q0 -65 9 -77q12 -18 41 -19q7 0 14.5 2t11.5 4l4 2l3 3q2 2 6 7.5t6 9.5q3 11 3 22q2 22 2 34v279q-2 2 -10.5 13t-14.5 17t-15.5 14.5t-20 12.5
t-21.5 4q-16 -1 -32 -8t-27.5 -17.5t-21.5 -20.5t-15 -17l-5 -7q-1 1 -3 3.5t-8.5 10t-13 14t-16 14.5t-18 14t-18 10t-16.5 4q-17 0 -39.5 -17.5t-37.5 -35.5l-14 -17q-1 7 -0.5 20.5t6 52t16.5 74.5t37 81t62.5 79.5t97 61.5t136.5 35l53 74l52 -74q241 -15 322 -214
q38 -95 33 -190z" />
    <glyph glyph-name="uni3434" unicode="&#x3434;" 
d="M862 -125h-667q-38 0 -61.5 30t-18.5 71l77 519q3 27 26 45.5t53 18.5h44q4 96 63.5 150t148.5 54q58 0 104.5 -23t75.5 -70t32 -111h47q14 0 28 -5t24.5 -13.5t17.5 -20.5t9 -25l77 -519q5 -41 -18.5 -71t-61.5 -30zM284 410q0 -21 15.5 -36.5t36.5 -15.5q7 0 12.5 1.5
t11 4t10 6t8 8t6 9.5t4 11t1.5 12q0 11 -4.5 20.5t-11.5 16.5t-16.5 11.5t-20.5 4.5q-33 0 -47 -31q-5 -11 -5 -22zM527 724q-37 0 -68 -10.5t-55.5 -30.5t-39 -52t-16.5 -72h357q-3 80 -53 122.5t-125 42.5zM723 463q-22 0 -37.5 -15.5t-15.5 -37.5q0 -14 7.5 -26t19.5 -19
t26 -7q22 0 37 15.5t15 36.5q0 15 -7 27t-19 19t-26 7z" />
    <glyph glyph-name="uni3435" unicode="&#x3435;" 
d="M849 -127h-277v286h342v-221q0 -11 -3.5 -21t-9.5 -18t-14 -14t-18 -9t-20 -3zM572 493q-9 3 -14.5 4.5t-13.5 5t-12 6.5q0 1 -0.5 1.5t-1.5 0.5v-1l-1 -1q-7 -6 -13.5 -9.5t-14.5 -6.5v-263h-360v227q0 27 19 46t46 19h151q-28 15 -47 33q-29 27 -43 61t-9 66t28 53
q29 28 75 28q31 0 62 -13t57 -37q10 -10 19.5 -21t17 -23t13.5 -25q7 13 14.5 25t16.5 23t20 21q53 50 119 50q45 0 75 -28q35 -32 27.5 -85t-52.5 -95q-19 -18 -46 -33h145q27 0 46 -19t19 -46v-227h-342v263zM435 664q-16 15 -35.5 23.5t-38.5 8.5q-20 0 -30 -9l-1 -1
t-2.5 -3t-2 -4.5t-1.5 -6t-1 -6.5q0 -33 33 -63q14 -13 33.5 -24t40 -17.5t37.5 -6.5q6 0 10 1t5 2h2q5 11 -8.5 46t-40.5 60zM578 557l2 -1q2 0 5.5 -0.5t7.5 -0.5q26 0 58 14t54 34q11 11 19 23t10.5 21.5t2.5 17.5q0 4 -0.5 7.5t-1.5 6t-2 4.5t-2 2.5t-2 1.5q-10 9 -29 9
t-38.5 -8.5t-35.5 -23.5q-28 -25 -41 -60t-7 -47zM501 -127h-295q-27 0 -46 19t-19 46v221h360v-286z" />
    <glyph glyph-name="uni3436" unicode="&#x3436;" horiz-adv-x="1000" 
d="M941 466q25 0 42 -14.5t17 -35.5v-294q0 -20 -17 -34.5t-42 -14.5h-19q-24 0 -41 14.5t-17 34.5v294q0 21 17 35.5t41 14.5h19zM78 466q24 0 40 -14.5t16 -35.5v-294q0 -7 -2 -13t-5.5 -11.5t-8.5 -9.5q-16 -15 -40 -15h-19q-25 0 -42 14.5t-17 34.5v294q0 21 17 35.5
t42 14.5h19zM666 698q10 -4 19.5 -9.5t19.5 -12.5q21 -14 40.5 -33t33.5 -41q7 -11 12 -23t9 -25h-605q17 53 54 87q18 17 36.5 30.5t37.5 23.5l-55 80q-1 1 -1 3t1 4q1 5 11 11q9 7 16 6.5t10 -2.5l55 -81q10 5 20.5 8.5t21 6.5t21.5 5q8 2 16.5 3.5t17 2.5t17.5 1h17
q72 0 135 -28l57 82q2 2 7 2q3 0 7.5 -1.5t10.5 -4.5q11 -5 12.5 -9t-0.5 -6zM369 612q6 0 12 2.5t10 6.5q10 9 10 22t-9.5 22t-23 9t-23.5 -9t-10 -22t10 -22t24 -9zM630 616q14 0 23.5 9t9.5 22t-9.5 22t-23 9t-23.5 -9t-10 -22t10 -22t23 -9zM800 491l1 -449
q0 -22 -15.5 -37t-37.5 -15h-15v-140q0 -20 -15 -35q-8 -7 -18 -11t-21 -4h-30q-22 0 -37.5 15t-15.5 35v140h-196v-140q0 -20 -15 -35t-38 -15h-31q-10 0 -19.5 4t-16.5 11q-4 4 -7 8t-5 8.5t-3 9t-1 9.5v140h-12q-22 0 -37.5 15t-15.5 37v449h601zM800 491z" />
    <glyph glyph-name="uni3437" unicode="&#x3437;" horiz-adv-x="1000" 
d="M646 614q21 25 32 60t11 57v22q-3 0 -9 -1t-22.5 -5t-32 -10.5t-34.5 -19t-32.5 -28t-23 -36t-13 -38t-5.5 -32.5t-2 -24v-9h3q2 0 8 1.5t12 2.5t15.5 4t18 6t18.5 8t19.5 11t19 14t17.5 17zM750 290q0 52 26.5 96t70.5 68q-19 28 -48 49t-58 31.5t-55 10.5
q-25 0 -61 -10.5t-65 -21t-38 -10.5q-7 0 -57.5 19t-90.5 20q-33 0 -68 -11.5t-70.5 -43t-51.5 -78.5q-18 -52 -21.5 -112.5t11.5 -131.5t49 -135q80 -151 157 -151q25 0 77.5 18.5t74.5 18.5q16 0 34.5 -5.5t33.5 -12.5t34 -13t35 -6q34 0 69 25.5t63 66.5q15 24 32 58.5
t26.5 56.5t9.5 23v5q-53 21 -86 68.5t-33 107.5z" />
    <glyph glyph-name="uni343A" unicode="&#x343a;" 
d="M893 684q29 0 49 -20t20 -49v-52q0 -29 -20 -48.5t-49 -19.5h-760q-29 0 -48.5 19.5t-19.5 48.5v52q0 29 19.5 49t48.5 20h760zM893 363q29 0 49 -19.5t20 -48.5v-52q0 -29 -20 -49t-49 -20h-760q-29 0 -48.5 20t-19.5 49v52q0 29 19.5 48.5t48.5 19.5h760zM893 43
q29 0 49 -20t20 -49v-52q0 -29 -20 -48.5t-49 -19.5h-760q-29 0 -48.5 19.5t-19.5 48.5v52q0 29 19.5 49t48.5 20h760z" />
    <glyph glyph-name="uni343B" unicode="&#x343b;" 
d="M512 725q88 0 165.5 -33.5t134.5 -91t90.5 -135t33.5 -165.5t-33.5 -165t-90.5 -134.5t-134.5 -91t-165.5 -33.5t-165 33.5t-134.5 91t-91 134.5t-33.5 165t33.5 165.5t91 135t134.5 91t165 33.5zM761 107q5 15 8 33t5 38q-14 5 -28 11l-28 12q-1 -13 -3 -28t-5 -35
q-5 -31 -45 -31h-31q-41 -3 -38 35v139l78 2l36 -36l46 41q-40 36 -79.5 70.5t-78.5 67.5l-40 -31q5 -5 13 -11.5t18 -16.5q22 -20 32 -32l-242 -6q55 46 131 122h257v56h-216q-1 3 -2 9l-4 14q-5 17 -9 27t-5 16l-67 -7q2 -5 5 -15t8 -25t6 -19h-237v-56h184
q-48 -54 -98 -94q-23 -22 -53 -35l29 -57q8 2 24 4t43 4h24q0 -76 -33 -110q-30 -36 -127 -67q2 -4 5 -8.5t8 -11.5q8 -12 13.5 -20t8.5 -14q199 61 187 236l75 3v-156q-2 -72 73 -69h67q73 -3 85 51z" />
    <glyph glyph-name="uni343D" unicode="&#x343d;" horiz-adv-x="1000" 
d="M1000 365l-191 -176v114h-314v124h314v114zM674 759h-576l307 -130v-616h269v248h45v-290h-314v-171l-405 171v829h719v-332h-45v291zM674 759z" />
    <glyph glyph-name="uni343E" unicode="&#x343e;" 
d="M194 -103h473v-53q0 -20 -15.5 -38t-45.5 -18h-351q-27 0 -44 16.5t-17 39.5v53zM829 324q35 0 68 -5t55.5 -20t32 -44t0.5 -78q-10 -51 -30 -77.5t-46 -38.5t-56.5 -12t-61.5 2q-12 -18 -26 -33t-30.5 -29t-33.5 -28.5t-34 -33.5h-473q-23 32 -50.5 53.5t-51 49.5
t-40 72t-16.5 120v108q0 20 7 30.5t16 15.5q12 5 25 7h697q13 -2 24 -7q9 -5 16.5 -15.5t7.5 -30.5v-6zM252 463q-2 -16 -13.5 -23.5t-24 -7.5t-23.5 7.5t-11 23.5q0 36 3.5 59t6.5 43q6 30 18.5 50.5t26.5 37.5t25 32.5t14 37.5q5 31 6.5 48.5t5 26.5t10.5 11t23.5 2
t23.5 -12t8 -29.5t-2 -37.5t-6 -36q-2 -14 -9.5 -29t-18 -30.5t-20.5 -31t-19 -30.5t-14 -38t-10 -74zM445 463q-2 -16 -13 -23.5t-24 -7.5t-23.5 7.5t-10.5 23.5q0 36 3.5 59t7.5 43q5 30 18 50.5t26 37.5t24.5 32.5t14.5 37.5q4 31 6 48.5t5.5 26.5t11 11t23.5 2t23 -12
t8 -29.5t-1.5 -37.5t-5.5 -36q-3 -14 -11 -29t-17.5 -30.5t-20.5 -31t-19 -30.5q-9 -15 -14 -38t-11 -74zM640 463q-2 -16 -13.5 -23.5t-24 -7.5t-23.5 7.5t-11 23.5q0 36 3 59t8 43q5 30 17.5 50.5t26.5 37.5t25 32.5t15 37.5q4 31 5.5 48.5t5 26.5t10.5 11t23.5 2
t23.5 -12t8 -29.5t-2 -37.5t-6 -36q-3 -14 -10.5 -29t-17.5 -31l-20 -30q-10 -16 -18 -31q-6 -8 -9.5 -16.5t-6 -21.5t-4.5 -31t-5 -43z" />
    <glyph glyph-name="uni343F" unicode="&#x343f;" 
d="M304 440q-14 0 -21.5 5.5t-10.5 12.5q-4 8 -4 18v68q0 19 8 29t17 15q11 5 24 5h397q13 0 24 -5q10 -5 17.5 -15t7.5 -29v-68q0 -10 -4 -18q-3 -7 -10 -12.5t-21 -5.5h-424zM838 -131q0 -23 -9 -41q-7 -15 -21.5 -27.5t-42.5 -12.5h-498q-28 0 -42.5 12.5t-21.5 27.5
q-8 18 -9 41v383q0 34 12 48t22 25l73 67h443l59 -67q10 -11 22.5 -25t12.5 -48v-383zM678 133h-108v109h-109v-109h-108v-109h108v-108h109v108h108v109z" />
    <glyph glyph-name="uni3440" unicode="&#x3440;" 
d="M128 362h769v-130h-24q-20 0 -26 11t-10 24.5t-13 24.5t-33 13q-25 1 -45 -8.5t-38.5 -22t-36.5 -23t-38.5 -10.5t-30.5 9t-19 20t-20 20t-32.5 9t-43 -7t-42 -16t-41 -16t-39.5 -7q-21 0 -35.5 5t-29 11.5t-31.5 13t-43 8.5q-28 2 -54 -8t-44 -22v101zM128 42h769v-128
h-769v128zM783 232q18 1 27 -7t18 -19t19 -20.5t29 -9.5h21v-70h-769v80q13 13 37 26.5t55 13.5q23 0 36 -7t25.5 -15.5t28.5 -16t44.5 -7.5t51.5 7t43 15.5t37 15t32 6.5q25 0 34 -8t17 -17.5t19 -17.5t38.5 -8t49 8.5t39.5 19.5t34.5 20t33.5 11zM897 427h-769v64
q8 43 42 79t86 62t118 40.5t139 14.5q74 0 140 -14.5t117 -40.5t85 -62t42 -79v-64zM347 556q13 0 22.5 9t9.5 22.5t-9.5 22.5t-22.5 9t-22.5 -9t-9.5 -22.5t9.5 -22.5t22.5 -9zM539 619q14 0 22.5 9.5t8.5 23t-8.5 22.5t-22.5 9t-22.5 -9t-8.5 -22.5t8.5 -23t22.5 -9.5z
M667.5 556q13.5 0 22.5 9t9 22.5t-9 22.5t-22.5 9t-22.5 -9t-9 -22.5t9 -22.5t22.5 -9z" />
    <glyph glyph-name="uni3443" unicode="&#x3443;" 
d="M366 808q12 2 18.5 -10.5t14.5 -26.5q3 -7 18 -27t32 -42.5t32 -42t18 -25.5q8 -13 9 -21t-12 -7q-7 1 -16.5 -1.5t-19 -6.5t-18.5 -9.5t-13 -9.5q-5 -7 -9.5 -6.5t-8.5 6t-8 13t-5 15.5q-2 10 -7 29.5t-11 41.5t-11 43.5t-9 36.5q-5 25 -3.5 36.5t9.5 13.5zM663 808
q7 -2 8.5 -13.5t-3.5 -36.5q-3 -15 -8.5 -36.5t-11.5 -43.5t-11 -41.5t-7 -29.5q-2 -8 -5 -15.5t-7.5 -13t-9.5 -6t-10 6.5q-3 4 -11.5 9.5t-19 9.5t-19.5 6.5t-16 1.5q-13 -1 -12 7t8 21q4 6 18.5 25.5t31.5 42t32 42.5t19 27q8 14 14.5 26.5t19.5 10.5zM489 399h48l1 145
h9q5 0 10 0.5t13 0.5t16 -5l16 -9q8 -5 16 -8.5t14 -2.5q6 0 13 11.5t15 27.5t14.5 34t12.5 32q5 13 10 31.5t9 35.5q4 20 6 41l37 -6q15 -3 31 -6l28 -5q10 -3 18.5 -5t15.5 -7t14.5 -12t18 -19.5t25.5 -36.5t31 -50.5t29.5 -50t18.5 -34.5q7 -15 2.5 -19t-9.5 -8
q-6 -4 -20.5 -13.5t-32 -21t-35 -21t-28.5 -14t-14.5 -3t-6.5 7.5q-2 3 -8.5 11.5t-13.5 18t-13 18.5t-8 11q-5 5 -11 0.5t-6 -21.5q0 -8 -0.5 -28t-0.5 -49v-65v-75q0 -105 -2.5 -168.5t-4.5 -99.5q-3 -41 -6 -59h-496q-3 29 -6 65q-2 31 -4.5 73t-1.5 91v81q0 42 -0.5 80
t-1 67t-0.5 43v47q0 17 -9 19q-5 1 -10 -3t-10 -11.5t-9.5 -15.5t-8.5 -14q-8 -11 -13 -16.5t-8 -6.5t-5 0l-8 3q-13 5 -31 14.5t-35 20.5t-30 20t-17 12q-8 5 -11.5 8t1.5 20q3 8 14 28.5t25.5 44.5t30 48t27.5 41q18 26 35 37.5t40 16.5q11 2 28 4.5t32 5.5q17 4 35 7
q4 -21 9 -41q4 -17 7.5 -35t7.5 -29q3 -12 10 -28.5t15 -33t15.5 -29.5t12.5 -16q10 -5 23.5 5.5t30.5 15.5q9 2 17 2.5t14 0.5q7 -1 13 -2v-144z" />
    <glyph glyph-name="uni3444" unicode="&#x3444;" 
d="M504 427q29 1 48 8.5t33 12.5q13 5 31 22t29 40q5 11 12.5 14.5t15.5 2.5t17 -5t16 -7t21.5 -11.5t32 -17.5t35.5 -18t32 -15q23 -10 33 -23t16 -22q3 -5 13 -21.5t21.5 -39.5t23 -50t17.5 -52q7 -27 11.5 -51.5t1 -48.5t-18.5 -46.5t-46 -42.5q-33 -20 -80 -37
t-101.5 -29.5t-109.5 -19.5t-104 -7t-103.5 7t-107 18.5t-97.5 27.5t-73.5 32t-45.5 32.5t-24.5 34t-8.5 38.5t1 47q2 25 13 56.5t24.5 61t26 53t19.5 33.5q6 9 17 24t31 23q10 4 29 13l40 20q21 11 41 22t33 17q10 5 18 4.5t13 -3.5t8 -7t5 -7q3 -6 10 -18.5t35 -34.5
q15 -11 31 -17t30 -9q18 -4 35 -4zM505 812h8q6 0 15.5 -3t24 -10.5t32.5 -24.5q19 -17 36.5 -38.5t30.5 -41.5t20.5 -34t8.5 -17l4 -11q3 -8 3 -16t-4.5 -16t-15.5 -12q-12 -4 -21 -2t-14.5 7t-8 11.5t-1.5 11.5q2 14 0.5 25t-12.5 31q-11 24 -27 46.5t-27 34.5
q-10 11 -25 17t-28 6q-18 -1 -32.5 -9.5t-24.5 -17.5q-5 -5 -11.5 -14.5t-13.5 -21t-14 -22t-10 -16.5q-7 -13 -10.5 -22t-1.5 -31.5t-9 -30t-25 -5.5q-15 1 -26 13t-3 34q4 12 14 28t22 34.5t26 36t28 31.5q26 29 48.5 39t43.5 10z" />
    <glyph glyph-name="uni3445" unicode="&#x3445;" 
d="M676 799q49 0 66 -21.5t17 -66.5v-205q0 -38 -18.5 -61.5t-69.5 -23.5h-311q-49 0 -68.5 22.5t-19.5 71.5v196q0 43 18.5 65.5t68.5 22.5h317zM715 366q24 0 34 -12.5t10 -33.5v-82q0 -22 -11.5 -36t-39.5 -14h-384q-24 0 -38 9.5t-14 39.5v85q0 44 50 44h393zM805 134
v333q0 28 16 40t39 12h47q30 0 39.5 -18.5t9.5 -37.5v-38v-78v-100v-102v-82v-43q0 -61 -59 -61h-36v-90h-65v90h-559v-90h-65v90h-41q-54 0 -56 63v446q0 26 15 38.5t39 12.5h40q30 0 43.5 -16t14.5 -41v-23q0 -16 -0.5 -40t-0.5 -53v-58v-154h579z" />
    <glyph glyph-name="uni3448" unicode="&#x3448;" 
d="M820 15q0 -25 -10 -47t-27.5 -38.5t-41 -26t-51.5 -9.5h-357q-28 0 -51.5 9.5t-41 26t-27.5 38.5t-10 47v675q0 25 10 47.5t27.5 39t41 26t51.5 9.5h357q28 0 51.5 -9.5t41 -26t27.5 -39t10 -47.5v-675zM739 642h-456v-578h456v578zM511 36q-21 0 -36.5 -15t-15.5 -37
t15.5 -37.5t36.5 -15.5q22 0 37 15.5t15 37.5t-15 37t-37 15zM592 727q0 8 -5 12.5t-12 4.5h-128q-5 0 -10.5 -4.5t-5.5 -12.5t5 -12.5t11 -4.5h128q7 0 12 4.5t5 12.5z" />
    <glyph glyph-name="uni3449" unicode="&#x3449;" 
d="M534 544q33 42 71 75q33 28 74.5 50.5t86.5 19.5q63 -5 105.5 -30t68 -63.5t34.5 -87t6 -100t-18 -98t-37 -87t-48.5 -74.5t-53.5 -62q-41 -42 -85.5 -78.5t-85 -62.5t-73.5 -41.5t-52 -15.5q-20 -1 -52 14.5t-69.5 41.5t-79.5 62t-83 76q-27 26 -57.5 59.5t-58 74
t-47 87.5t-21.5 100.5t11.5 100t40 83.5t65.5 62t88 35q25 5 49.5 1.5t48 -12t45 -22t40.5 -27.5q46 -34 87 -81z" />
    <glyph glyph-name="uni344A" unicode="&#x344a;" 
d="M187 741q29 0 49 -19.5t20 -47.5v-52q0 -29 -20 -49t-49 -20h-54q-28 0 -47.5 20t-19.5 49v52q0 28 19.5 47.5t47.5 19.5h54zM890 741q28 0 47.5 -19.5t19.5 -47.5v-52q0 -29 -19.5 -49t-47.5 -20h-437q-29 0 -49 20t-20 49v52q0 28 20 47.5t49 19.5h437zM187 423
q29 0 49 -20t20 -49v-52q0 -28 -20 -48t-49 -20h-54q-28 0 -47.5 20t-19.5 48v52q0 29 19.5 49t47.5 20h54zM890 423q28 0 47.5 -20t19.5 -49v-52q0 -28 -19.5 -48t-47.5 -20h-437q-29 0 -49 20t-20 48v52q0 29 20 49t49 20h437zM187 103q29 0 49 -20t20 -47v-52
q0 -29 -20 -49t-49 -20h-54q-28 0 -47.5 20t-19.5 49v52q0 27 19.5 47t47.5 20h54zM890 103q28 0 47.5 -20t19.5 -47v-52q0 -29 -19.5 -49t-47.5 -20h-437q-29 0 -49 20t-20 49v52q0 27 20 47t49 20h437z" />
    <glyph glyph-name="uni344B" unicode="&#x344b;" 
d="M346 5q20 0 37 -7t30 -20t20.5 -30.5t7.5 -37t-7.5 -36.5t-20.5 -30t-30 -20.5t-37 -7.5t-37.5 7.5t-30.5 20.5t-20.5 30t-7.5 36.5t7.5 37t20.5 30.5t30.5 20t37.5 7zM772.5 3q19.5 0 37 -7t30.5 -20t20.5 -30.5t7.5 -37t-7.5 -36.5t-20.5 -30t-30.5 -20.5t-37 -7.5
t-37 7.5t-30.5 20.5t-20.5 30t-7.5 36.5t7.5 37t20.5 30.5t30.5 20t37 7zM944 585q29 0 45 -8t22.5 -19t6 -24t-3.5 -22t-13.5 -38t-22 -63t-23.5 -68t-19 -53q-13 -41 -33 -57t-50 -16h-36h-65h-86h-97h-254l15 -92h517q49 0 49 -42q0 -21 -9.5 -35.5t-38.5 -14.5h-49h-94
h-119h-120h-99h-56q-20 0 -34 9t-23 24t-15 32.5t-9 32.5q-1 6 -5.5 29.5t-11 59t-15 79t-16.5 87.5q-19 103 -44 230h-77q-15 0 -25 8t-17 18.5t-9.5 23t-2.5 22.5q0 21 14 34t37 13h22h21h26h35q20 0 32.5 -6t19.5 -15.5t10 -19.5t5 -17q2 -8 4.5 -23t4.5 -30q3 -19 6 -39
h700zM867 617h-374l135 136q23 23 51.5 23.5t51.5 -22.5z" />
    <glyph glyph-name="uni344C" unicode="&#x344c;" horiz-adv-x="1090" 
d="M547 738q25 0 49 -10t40.5 -28t27 -41.5t10.5 -50.5q0 -39 -20 -69.5t-52 -47.5q-11 -31 -11 -65q0 -38 13.5 -75.5t38 -67.5t56.5 -49t69 -19q32 0 60 15.5t51 39.5t39 54t23 60q-28 13 -45 40t-17 59q0 23 8 42.5t22.5 33.5t34 23t41 9t40.5 -9t33.5 -23t23 -33.5
t8.5 -42.5q0 -32 -17 -58.5t-44 -39.5q-5 -51 -15 -104.5t-25.5 -106t-36 -101.5t-45.5 -90q-85 -32 -176 -49t-187.5 -17t-187 17t-176.5 49q-24 41 -44.5 90t-36 101.5t-26.5 106t-15 104.5q-26 13 -42 39.5t-16 58.5q0 23 8 42.5t22 33.5t33 23t40.5 9t41 -9t34 -23
t22.5 -33.5t8 -42.5q0 -33 -17.5 -60t-45.5 -39q8 -31 23.5 -61t38.5 -54.5t51.5 -40t59.5 -15.5q37 0 69.5 19t57 49t38.5 68t14 76q0 36 -15 70q-28 17 -46 47t-18 66q0 27 10 50.5t27.5 41.5t40.5 28t50 10z" />
    <glyph glyph-name="uni344D" unicode="&#x344d;" horiz-adv-x="1026" 
d="M1025 32h-128v-60q0 -26 -18.5 -44.5t-44.5 -18.5h-65q-27 0 -45 18.5t-18 44.5v60h-384v-60q0 -26 -19 -44.5t-46 -18.5h-64q-27 0 -45.5 18.5t-18.5 44.5v60h-129v201q0 58 36.5 89.5t91.5 35.5q4 18 13 47.5t18.5 64t20 68.5t20.5 61q27 78 115 78h398q40 0 65.5 -22
t35.5 -52l22 -63q11 -35 22.5 -70t22 -65t16.5 -47q55 -5 91.5 -36.5t36.5 -88.5v-201zM126 164q27 0 45.5 18.5t18.5 45t-18.5 45.5t-45.5 19t-45.5 -19t-18.5 -45.5t18.5 -45t45.5 -18.5zM794 357l-38 188h-488l-34 -188h560zM896 164q27 0 46.5 19.5t19.5 45.5
q0 28 -19.5 47t-46.5 19q-28 0 -47 -19t-19 -47q0 -26 19 -45.5t47 -19.5z" />
    <glyph glyph-name="uni344E" unicode="&#x344e;" horiz-adv-x="1086" 
d="M321 420l455 2l-218 -550zM373 620l347 -3l62 -134l-451 3zM274 490l-274 114l147 110l176 -91zM0 538l260 -116l279 -546zM842 423l243 126l-512 -670zM837 491l-69 141l157 87l135 -114zM368 687l-59 16l-112 62l131 47h428l130 -54l-125 -61l-42 -10h-351z" />
    <glyph glyph-name="uni344F" unicode="&#x344f;" 
d="M362 429.5q0 -20.5 -14.5 -35t-35 -14.5t-35 14.5t-14.5 35t14.5 35t35 14.5t35 -14.5t14.5 -35zM362 429.5q0 -20.5 -14.5 -35t-35 -14.5t-35 14.5t-14.5 35t14.5 35t35 14.5t35 -14.5t14.5 -35zM797 429q0 -20 -14.5 -34.5t-35 -14.5t-35 14.5t-14.5 35t14.5 35
t34.5 14.5q14 0 25.5 -7t18 -18t6.5 -25zM852 -127h-653q-41 0 -70.5 29t-29.5 70v508q0 42 29.5 71t70.5 29h653q42 0 71 -29t29 -71v-508q0 -20 -8 -38.5t-21.5 -31.5t-31.5 -21t-39 -8zM199 526q-7 0 -14 -2.5t-12.5 -6.5t-10 -9.5t-6.5 -12.5t-2 -15v-508
q0 -18 13 -31.5t32 -13.5h653q19 0 32.5 13.5t13.5 31.5v508q0 10 -4 18t-10 14.5t-14.5 10t-17.5 3.5h-653zM771 435h-55v227q0 6 -1.5 12t-4.5 11t-7 9t-9 7t-11 4.5t-12 1.5h-290q-19 0 -32.5 -13t-13.5 -32v-227h-54v227q0 27 13.5 50t36.5 36.5t50 13.5h290
q41 0 70.5 -29.5t29.5 -70.5v-227z" />
    <glyph glyph-name="uni3455" unicode="&#x3455;" 
d="M8 368v-176q0 -36 7.5 -68t21 -57t30 -46.5t37 -38t39.5 -29.5t40 -22.5t35.5 -15t28.5 -9.5v-71h533v71q16 5 33 11.5t41.5 19t46 28.5t44 39.5t38 51.5t26 66t10.5 81v165h-1011zM964 203q0 -42 -12 -78.5t-29.5 -61t-41.5 -44.5t-44.5 -31t-43 -19.5t-31.5 -11
t-15 -3.5l-22 -4v-60h-423v60l-23 4q-71 14 -131 62q-85 69 -85 176v29h901v-18zM964 258h-901v55h901v-55zM430 699h570v-55h-570v55zM26 699h55v-55h-55v55zM26 589h55v-55h-55v55zM430 589h570v-55h-570v55zM92 392q38 8 58 33.5t23 49.5v207q0 16 10.5 27t19.5 14.5
t13 3.5v55q-31 0 -64.5 -26.5t-33.5 -73.5v-201q-6 -28 -38 -35zM202 392q27 6 46 22t26 31t9 30v207q0 16 10.5 27t19.5 14.5t14 3.5l-1 55q-18 0 -39.5 -10t-40 -33.5t-18.5 -56.5v-201q-5 -28 -38 -35zM312 392q39 8 59 33.5t23 49.5v207q0 16 10 27t19 14.5t14 3.5v55
q-32 0 -65 -26.5t-33 -73.5v-201q-6 -28 -38 -35z" />
    <glyph glyph-name="uni3456" unicode="&#x3456;" 
d="M50 384l7 -4h468l-110 362l-1 2q-1 4 -3.5 8t-6.5 11.5t-9.5 14t-12.5 13t-16 10t-19 3.5q-8 0 -15 -2q-11 -4 -18.5 -10.5t-10.5 -16t-4.5 -15t-1.5 -14.5q-1 -2 -1 -3v-3q0 -2 -0.5 -3.5t-0.5 -2.5l-7 7q-23 24 -44 24q-11 0 -22 -6q-30 -17 -21 -64q2 -8 2 -11
q-1 0 -2.5 0.5t-2.5 1.5q-5 2 -8.5 3t-9.5 2.5t-12 1.5q-10 0 -20.5 -4.5t-20.5 -16.5q-12 -14 -12 -30.5t4 -24.5t11 -18q3 -5 5 -7q-1 0 -5 1q-12 4 -20 4q-24 0 -38 -22q-7 -10 -8 -19.5t0.5 -16.5t6.5 -15t8 -12t8.5 -9.5t7.5 -8.5q-3 0 -10 1q-4 0 -7.5 0.5t-6.5 0.5
q-32 0 -46 -29q-10 -19 -6.5 -36t12 -28.5t19.5 -18.5zM72 443q2 0 8 -1q9 -1 14 -1q32 0 48 26q21 33 -16 72l-2 1q3 0 6 -0.5t6 -0.5q25 0 42 23q8 10 10 20.5t-1.5 20.5t-6 15t-7.5 12q-4 6 -6 8h1v2h1q2 0 10 -4q17 -6 28 -6q18 0 32 12q22 19 15 58q21 -22 42 -22
q5 0 10 1.5t10 3.5q29 13 33 58l1 8q9 -9 15 -24l89 -292h-381q-3 4 -1 10zM291 -28q-24 0 -44 -12t-31.5 -32t-11.5 -44q0 -36 25.5 -61.5t61.5 -25.5q18 0 34 7t27.5 18.5t18.5 28t7 33.5q0 36 -25.5 62t-61.5 26zM291 -150q-14 0 -24.5 10t-10.5 24q0 10 5 18t13 12.5
t17 4.5q14 0 24 -10t10 -24.5t-10 -24.5t-24 -10zM581 -28q-36 0 -61.5 -26t-25.5 -62t25.5 -61.5t61.5 -25.5t61.5 25.5t25.5 61.5q0 24 -11.5 44t-31.5 32t-44 12zM581 -150q-14 0 -24 10t-10 24q0 7 2.5 13.5t7 11t11 7.5t13.5 3q14 0 24.5 -10t10.5 -24.5t-10.5 -24.5
t-24.5 -10zM988 690q-65 65 -133 30q-14 -8 -25 -21t-26.5 -41.5t-16.5 -28.5q-58 -96 -157 -266h-598l3 -29q1 -8 3.5 -22t14 -50.5t28 -71t48.5 -75t72 -70.5t102.5 -50t135.5 -20q83 0 150.5 26t109 65t70.5 89t41 94.5t14 85.5l1 28h-134q49 83 91 153q41 69 69 116
q14 23 27 34.5t32 9.5t40 -23q12 -11 26.5 -6.5t18 17.5t-6.5 26zM439 28q-73 0 -133 22.5t-95.5 53.5t-62.5 73.5t-37.5 72.5t-17.5 60h675q-3 -20 -8.5 -40t-17 -49t-27 -54.5t-41.5 -51.5t-58 -44.5t-77.5 -30.5t-99.5 -12z" />
    <glyph glyph-name="uni3457" unicode="&#x3457;" 
d="M751 29h-496v684h496v-684zM306 80h394v581h-394v-581zM548 -56q0 -7 -2 -13.5t-6 -11.5t-9 -9t-11.5 -6t-13.5 -2q-17 0 -29.5 12.5t-12.5 29.5q0 11 6 21t15.5 15.5t20.5 5.5q18 0 30 -12.5t12 -29.5zM749 -194h-492q-12 0 -23.5 3.5t-21 9t-17.5 13.5t-13.5 17.5
t-8.5 21t-3 22.5v818q0 36 25.5 61.5t61.5 25.5h492q24 0 44 -11.5t32 -32t12 -43.5v-818q0 -36 -26 -61.5t-62 -25.5zM257 747q-5 0 -9.5 -1.5t-8.5 -4t-7.5 -5.5t-6 -7t-3.5 -8.5t-1 -9.5v-818q0 -14 10.5 -24.5t25.5 -10.5h492q15 0 25.5 10.5t10.5 24.5v818q0 25 -23 33
q-6 3 -13 3h-492z" />
    <glyph glyph-name="uni3458" unicode="&#x3458;" 
d="M321 432q0 -24 -16.5 -40.5t-39.5 -16.5q-16 0 -29 7.5t-20.5 20.5t-7.5 29q0 23 16.5 39.5t40.5 16.5q15 0 28 -7.5t20.5 -20.5t7.5 -28zM321 432q0 -24 -16.5 -40.5t-39.5 -16.5q-16 0 -29 7.5t-20.5 20.5t-7.5 29q0 23 16.5 39.5t40.5 16.5q15 0 28 -7.5t20.5 -20.5
t7.5 -28zM819 432q0 -24 -17 -40.5t-40 -16.5t-39.5 16.5t-16.5 40t16.5 40t39.5 16.5q15 0 28 -7.5t21 -20.5t8 -28zM882 -204h-746q-47 0 -80.5 33.5t-33.5 80.5v580q0 31 15 57.5t41.5 41.5t57.5 15h746q31 0 57 -15t41.5 -41.5t15.5 -57.5v-580q0 -47 -33.5 -80.5
t-80.5 -33.5zM136 542q-22 0 -37 -15t-15 -37v-580q0 -14 7 -26t19 -19t26 -7h746q21 0 36.5 15t15.5 37v580q0 22 -15.5 37t-36.5 15h-746zM789 438h-63v259q0 11 -4 20.5t-11 16.5t-16.5 11t-19.5 4h-332q-21 0 -36.5 -15t-15.5 -37v-259h-62v259q0 47 33.5 80.5
t80.5 33.5h332q31 0 57 -15t41.5 -41.5t15.5 -57.5v-259z" />
    <glyph glyph-name="uni3459" unicode="&#x3459;" 
d="M661 302l65 242l-119 112l-98 -73l-100 75l-118 -115l73 -241l-350 -284l143 -145l124 107l109 -105l122 106l115 -107l116 109l113 -110l156 145zM413 596l95 -72l96 71l70 -66l-58 -212h-208l-64 213zM744 48l-117 -110l-114 106l-121 -105l-109 105l-124 -107l-75 78
l315 255h227l314 -255l-83 -77zM437 683q9 0 15.5 6.5t6.5 15.5t-6.5 15.5t-15.5 6.5t-15 -6.5t-6 -15.5t6 -15.5t15 -6.5zM505 683q6 0 11 3t8 8t3 11q0 4 -1 7t-3 6t-5 5t-6 3t-7 1q-6 0 -11 -3t-8 -8t-3 -11q0 -9 6.5 -15.5t15.5 -6.5zM573 683q9 0 15 6.5t6 15.5
t-6 15.5t-15 6.5t-15.5 -6.5t-6.5 -15.5t6.5 -15.5t15.5 -6.5z" />
    <glyph glyph-name="uni3464" unicode="&#x3464;" 
d="M881 292l-483 520h-223l483 -520l-483 -484h223z" />
    <glyph glyph-name="uni3465" unicode="&#x3465;" 
d="M658 -192h223l-483 484l483 520h-223l-483 -520z" />
    <glyph glyph-name="uni3466" unicode="&#x3466;" 
d="M513 808q-187 0 -329 -121q-136 -116 -170 -290q-9 -48 -9 -96q0 -103 40.5 -197t108.5 -162t161.5 -108.5t197 -40.5t197 40.5t161.5 108.5t108.5 162t40.5 197q0 59 -13.5 116t-38.5 107t-59.5 94t-79 78.5t-94 59.5t-106.5 38.5t-116 13.5zM513 -155q-75 0 -144.5 23
t-125 65.5t-98 98.5t-65.5 125t-23 144q0 92 36 176.5t97 145.5t145.5 97t177 36t177 -36t145.5 -97t97 -145.5t36 -177t-36 -177t-97 -145.5t-145.5 -97t-176.5 -36zM490 284.5q-2 10.5 -10.5 17t-19.5 4.5l-50 -8v110h52q7 0 13 3.5t9.5 9.5t3.5 13q0 10 -8 18t-18 8h-52
v86q0 7 -3.5 13t-9.5 9.5t-13 3.5t-13 -3.5t-9.5 -9.5t-3.5 -13v-86h-35v52q0 10 -7.5 17.5t-18.5 7.5q-4 0 -8 -1t-7 -3.5t-5.5 -5.5t-4 -7t-1.5 -8v-62q0 -7 -2 -13.5t-5 -10.5t-6.5 -6t-6.5 -2q-7 0 -13 -3.5t-9.5 -9.5t-3.5 -13q0 -11 7.5 -18.5t18.5 -7.5q41 0 62 42
h45v-118l-107 -16q-11 -2 -17.5 -10.5t-4.5 -19.5q1 -9 8.5 -15.5t17.5 -6.5h4l99 16v-177q0 -10 7.5 -17.5t18.5 -7.5t18.5 7.5t7.5 17.5v185l58 9q11 1 17.5 10t4.5 19.5zM756 408h-104v52h87q7 0 13 3.5t9.5 9t3.5 13.5q0 4 -1.5 8t-4 7t-5.5 5.5t-7 4t-8 1.5h-87v69
q0 10 -7.5 18t-18.5 8q-5 0 -10 -2t-8.5 -5.5t-5.5 -8.5t-2 -10v-69h-69q-11 0 -18.5 -8t-7.5 -18.5t7.5 -18t18.5 -7.5h69v-52h-86q-11 0 -18.5 -8t-7.5 -18.5t7.5 -18t18.5 -7.5h242q5 0 10 2t8.5 5.5t5.5 8t2 10t-2 10.5t-5.5 8.5t-8.5 5.5t-10 2zM756 286h-52v35
q0 11 -7.5 18.5t-18.5 7.5q-7 0 -13 -3.5t-9.5 -9.5t-3.5 -13v-35h-138q-11 0 -18.5 -7.5t-7.5 -17.5q0 -6 2 -10.5t5.5 -8t8 -5.5t10.5 -2h138v-124v-11q0 -3 -1.5 -8t-4.5 -6l-8 -4q-5 -3 -13.5 -3.5t-20.5 -0.5q-11 0 -18.5 -7.5t-7.5 -18.5t7.5 -18.5t18.5 -7.5t18 0.5
t21 2.5t23 7.5t18.5 14.5t14.5 24.5t5 35.5v124h52q11 0 18.5 7.5t7.5 18t-7.5 18t-18.5 7.5zM539.5 209q-10.5 0 -18 -8t-7.5 -18v-52q0 -11 7.5 -18.5t18 -7.5t18.5 7.5t8 18.5v52q0 10 -8 18t-18.5 8z" />
    <glyph glyph-name="uni346A" unicode="&#x346a;" 
d="M861 555q4 -8 6 -18q1 -4 1.5 -7.5t0.5 -7.5v-8q0 -6 -1 -11.5t-3 -11.5q-4 -12 -14 -22q-11 -11 -20 -19l-7 -8l-7 -6q-7 -8 -14 -13l-167 167q11 10 26 24q14 14 24 22q4 3 8.5 5.5t9 4.5t8.5 4q14 4 27 3.5t25 -4t21 -8.5q18 -10 41 -34.5t35 -51.5zM165 119
q6 6 25.5 26t49.5 49l65 66l72 72l192 192l167 -168l-192 -192l-71 -72q-36 -35 -64.5 -64t-47.5 -48t-22 -21q-9 -8 -20.5 -17t-24.5 -15l-5 -3q-3 -1 -6.5 -2.5t-7.5 -3t-8.5 -3t-9.5 -3.5q-24 -9 -50 -17q-13 -5 -25.5 -8.5t-24.5 -6.5q-24 -6 -35 -8q-25 -3 -33 7t-4 33
q2 13 8.5 36.5t14 49t15 47t11.5 29.5q5 12 12 22.5t19 22.5zM165 119zM463 -49h80v-80h-80v80zM626 -49h80v-80h-80v80zM789 -49h80v-80h-80v80z" />
    <glyph glyph-name="uni346B" unicode="&#x346b;" 
d="M975 124l-448 448l-449 -449v-118h1l448 448l448 -448v119z" />
    <glyph glyph-name="uni346C" unicode="&#x346c;" horiz-adv-x="1031" 
d="M999 769h-945q-5 0 -9.5 -1.5t-8.5 -4.5t-7 -7t-4.5 -8.5t-1.5 -9.5v-294q0 -13 9 -22.5t22 -9.5h116v-514q0 -8 4 -15.5t11.5 -11.5t15.5 -4h651q9 0 16 4t11 11.5t4 15.5v514h116q13 0 22 9.5t9 22.5v294q0 13 -9 22t-22 9zM683 706q-7 -47 -36 -77q-19 -20 -47.5 -30
t-65.5 -10q-40 0 -70.5 11.5t-48 31t-26.5 37t-13 37.5h307zM233 -70v42h588v-42h-588zM967 475h-115q-9 0 -16 -4t-11 -11.5t-4 -15.5v-430h-588v430q0 13 -9.5 22t-22.5 9h-115v231h247q4 -19 10.5 -37.5t22 -41.5t36 -40t55 -28.5t77.5 -11.5q31 0 57 6t48 18t39 29
q39 42 48 106h241v-231z" />
    <glyph glyph-name="uni346D" unicode="&#x346d;" horiz-adv-x="1031" 
d="M816 340h-106q-45 0 -78.5 11.5t-54.5 34.5q-41 43 -39 111v213q0 9 -4.5 16.5t-12.5 12t-17 4.5h-448q-14 0 -23.5 -10t-9.5 -23v-672v-6v-6v-89q0 -19 16 -29q5 -7 12.5 -11.5t16.5 -4.5h929q14 0 24 10t10 24v112v79q0 47 -15.5 86t-38.5 63t-53 41t-56.5 24t-51.5 9z
M90 676h381v-177v-7q0 -4 0.5 -14.5t2 -21.5t5.5 -26.5t10 -29.5t16 -30t22 -29q64 -68 183 -68h104q7 -1 18 -2.5t36.5 -11.5t44.5 -25t35 -45.5t16 -71.5v-46h-874v605zM964 -41h-874v45h874v-45zM380.5 637q-12.5 0 -21.5 -9t-9 -22t9 -22t22 -9q8 0 15 4.5t11 11.5t4 15
q0 13 -9 22t-21.5 9zM381 535q-13 0 -22 -8.5t-9 -21.5q0 -6 2.5 -12t6.5 -10t10 -6.5t12 -2.5q12 0 21 9t9 22q0 8 -4 15t-11 11t-15 4zM381 434q-4 0 -7.5 -0.5t-6.5 -2t-5.5 -4t-4.5 -5t-3.5 -5.5t-2.5 -6.5t-1 -6.5q0 -5 1 -9t3 -7t5 -6t6.5 -5t7.5 -3t8 -1q12 0 21 9
t9 21.5t-9 21.5t-21 9z" />
    <glyph glyph-name="uni3470" unicode="&#x3470;" 
d="M527.5 -34q-103.5 0 -191 51t-138 138.5t-50.5 190.5t50.5 190.5t138 138.5t191.5 51q77 0 147 -30.5t121 -81t81 -121t30 -147.5q0 -103 -50.5 -190.5t-138 -138.5t-191 -51zM684 368h-45v45h-44v44h-45v45h-45v45h-89v-45h44v-45h45v-44h45v-45h45v-45h-45v-44h-45v-45
h-45v-45h-44v-44h89v44h45v45h45v45h44v44h45v45z" />
    <glyph glyph-name="uni3472" unicode="&#x3472;" 
d="M959 294v31h-30v30h-31v-30h-30v-31h-30v61h30v30h30v31h31v-31h30v-30h31v-61h-31zM686 325h-91v-61h-61v212h61h91v-30h30v-91h-30v-30zM655 446h-60v-91h60v91zM473 264h-152v30h-30v152h30v30h152v-30h30v-152h-30v-30zM443 446h-91v-152h91v152zM200 264h-61v182
h-61v30h182v-30h-60v-182z" />
    <glyph glyph-name="uni3473" unicode="&#x3473;" 
d="M381 6v155h544v-155h-544zM381 394h544v-155h-544v155zM381 627h544v-155h-544v155zM148 161h156v-155h-156v155zM148 394h156v-155h-156v155zM148 627h156v-155h-156v155z" />
    <glyph glyph-name="uni3475" unicode="&#x3475;" 
d="M530 763q-91 0 -174 -35t-142.5 -95t-95 -142.5t-35.5 -173.5t35.5 -174t95 -142.5t142.5 -95t174 -35.5t173.5 35.5t142.5 95t95.5 142.5t35.5 174q0 170 -114 297q-109 123 -271 145q-31 4 -62 4zM408.5 88q-14.5 0 -24.5 10t-10 24t10 24.5t24 10.5q10 0 18 -5
t12.5 -12.5t4.5 -17.5q0 -14 -10 -24t-24.5 -10zM618.5 78q-19.5 0 -33.5 14t-14 33q0 13 6.5 24t17 17.5t23.5 6.5t24 -6.5t17 -17.5t6 -24q0 -19 -13.5 -33t-33 -14zM828 496q0 -7 -3.5 -12.5t-9.5 -8.5t-13 -3h-81l-93 -262q-2 -8 -9 -12.5t-15 -3.5h-2h-248q-5 0 -9.5 2
t-8 5t-5.5 7.5t-2 9.5v7q0 10 7.5 17.5t17.5 7.5h229l12 34h-283q-4 0 -8.5 2t-8 5t-5.5 7.5t-2 9.5v8q0 10 7 17t17 7h303l12 34h-340q-5 0 -9.5 2t-8 5t-5 7.5t-1.5 9.5v7q0 10 7 17.5t17 7.5h360l29 82q5 15 21 16h4h101q7 0 13 -3t9.5 -8.5t3.5 -12.5v-8z" />
    <glyph glyph-name="uni347E" unicode="&#x347e;" 
d="M528 766q-92 0 -175 -35.5t-143.5 -95.5t-96 -143.5t-35.5 -175t35.5 -174.5t96 -143.5t143.5 -96t174.5 -35.5t175 35.5t143.5 96t95.5 143.5t35.5 175q0 171 -113 298q-110 123 -272 147q-32 4 -64 4zM793 147q-1 -6 -2.5 -12t-3 -11t-2.5 -10q-13 -55 -86 -52h-67
q-77 -3 -75 70v157l-75 -2q12 -177 -188 -240q-4 7 -9 15q-6 9 -14 20q-5 7 -8 12q-4 5 -6 9q99 31 129 67q34 34 34 112h-25q-9 -1 -17 -1.5t-14.5 -1t-11.5 -1.5q-16 -2 -24 -4l-30 57q31 13 54 36q50 41 99 94h-186v58h239q0 3 -6 19q-5 16 -8 25q-3 11 -5 16l68 7
q1 -3 2 -7.5t3 -9.5q4 -11 8 -27l5 -14q0 -3 0.5 -5.5t1.5 -3.5h218v-58h-260q-38 -38 -71 -69t-61 -54l244 6q-2 3 -5.5 6.5t-7.5 8t-8.5 8.5t-10.5 9q-5 6 -9.5 10t-8.5 7.5t-7.5 6.5t-5.5 5l40 32q39 -34 79 -69q42 -37 80 -71l-46 -42l-36 36l-79 -2v-140
q-1 -19 8.5 -28t29.5 -7h31q21 0 32 7.5t14 23.5q3 23 5 35q1 8 2 15t1 13q13 -5 29 -12l6 -2l8 -4q3 -1 6.5 -2t7.5 -2q-2 -22 -5 -39z" />
    <glyph glyph-name="uni347F" unicode="&#x347f;" 
d="M840 144q16 -10 28.5 -23.5t21.5 -29.5q19 -34 19 -73q0 -32 -12 -59q-2 -5 -5 -10l-6 -10q-3 -5 -6 -9.5t-7 -8.5l-8 -8q-10 -10 -21.5 -18t-25.5 -14q-27 -12 -58 -12q-39 0 -71.5 19t-52.5 49q-4 4 -6.5 8.5t-7.5 8.5q-5 7 -8.5 15t-6 17t-4.5 19q-3 31 -3 63
q2 40 2 65q1 16 0 30t-4 26q-6 10 -11.5 20t-12.5 21l-6 12l-8 10q-3 6 -7 12t-8 11q-2 3 -5 7q-1 1 -2 2.5t-2 3.5q-10 -12 -18.5 -22.5t-16.5 -21.5q-6 -8 -11.5 -15t-11.5 -15t-12 -15l-4 -6l-4 -6q-3 -5 -8 -11q-4 -9 -6 -17t-2 -14v-5v-6v-6l2 -4q0 -3 1 -5
q3 -13 7 -26q3 -7 4 -15t1 -16q1 -18 -5 -41q-2 -12 -7 -26.5t-13 -30.5q-8 -22 -21.5 -39t-31.5 -31q-38 -27 -86 -27q-31 0 -58 12t-47 32t-31.5 47.5t-11.5 58.5q0 34 14 63.5t38 49.5q24 25 49.5 41.5t51.5 30.5q12 7 24.5 14.5t23.5 14.5q8 4 15 9.5t13 11.5t12 13
q4 4 7 9q2 3 3.5 5t3.5 5l1 1q4 7 11 14q6 8 12.5 17t13.5 18q14 20 27 38q-24 25 -42 42q-8 8 -16.5 17.5t-16.5 19.5q-17 22 -30.5 45t-25 46.5t-20 46t-14.5 44t-9.5 40.5t-3.5 36q-1 33 12 49q6 5 18 7q7 2 11.5 -0.5t8.5 -8.5q15 -22 39 -58q7 -11 14.5 -23t15.5 -24
t17 -25q24 -37 52 -80q26 -38 55 -82q6 7 11 15t11 16q25 37 48 76q22 37 44 75.5t36 64.5q7 14 13 25t11 19q3 6 8.5 8.5t13.5 3t15 -2t13 -8.5q3 -2 5 -10.5t5 -21.5q1 -9 1 -20t-1 -23.5t-3 -26.5q-7 -42 -30 -97.5t-72 -118.5l-30 -38q-8 -9 -15.5 -18.5t-15.5 -19.5
q21 -32 41 -62q17 -26 35 -53q23 -25 47 -39q25 -14 46 -24q14 -7 40 -19q10 -4 18 -9.5t15 -11.5zM292 -51q30 0 51.5 21.5t21.5 51.5q0 16 -5.5 29t-16.5 24q-5 5 -11 9t-12 7t-13 4t-15 1q-30 0 -51.5 -21.5t-21.5 -52t21 -52.5q11 -11 24 -16t28 -5zM759 -51
q30 0 51.5 21t21.5 51q0 16 -5.5 29t-16 23.5t-23.5 16t-28 5.5q-30 0 -51.5 -21.5t-21.5 -52.5q0 -15 6 -28q2 -7 6 -12.5t9 -10.5q10 -10 24 -16q7 -3 14 -4t14 -1zM759 -51z" />
    <glyph glyph-name="uni3481" unicode="&#x3481;" 
d="M977 317q-2 16 -15.5 29.5t-34 22t-36.5 13t-31.5 7.5t-64 4.5t-126.5 0.5l-47 82q43 39 56 54q7 10 7 17t-5.5 12t-13 7.5t-14.5 1.5h-83q-35 61 -61 105t-37 61q-10 16 -24 24t-27.5 8t-25 -4t-18.5 -12t-6 -16q3 -28 85 -345h-4h-4q-107 -3 -204 -22q-71 76 -105 115
q-9 9 -16.5 14.5t-13.5 7t-11.5 0.5t-9 -4.5t-6 -7t-3 -8t-0.5 -7.5q8 -48 37 -145q-8 -2 -13.5 -4.5t-8.5 -5t-3 -5.5v0q0 -5 6.5 -9t18.5 -7q-30 -99 -37 -144q-1 -5 1 -11t7 -10.5t12 -6t17.5 4t22.5 17.5q35 41 105 116q29 -6 59.5 -10.5t68 -8t76.5 -4.5h3h2h3
q-82 -316 -85 -344q-1 -15 16.5 -26t43 -5.5t41.5 31.5q20 31 98 165h83q10 0 19.5 4t13 12.5t-6.5 21.5q-12 15 -56 54q17 31 29.5 52.5t17.5 29.5h59q26 0 48 0.5t38.5 1t28 1.5t17.5 2q20 4 43.5 12t47.5 25t26 36z" />
    <glyph glyph-name="uni3484" unicode="&#x3484;" 
d="M799 332q7 -7 11 -16.5t4 -21.5q0 -23 -15 -39l-372 -373q-17 -15 -40 -15t-38 15l-255 255q-3 3 -5 6l-4 6q-2 3 -3.5 6t-1.5 7l-2 6v8q0 22 16 39l373 372q16 16 38 16q11 0 21 -4t18 -12zM524 450q3 3 4.5 6t2.5 6.5t1 7.5q0 12 -8 19q-4 4 -9 6t-10 2q-11 0 -20 -8
l-273 -274q-8 -8 -8 -19q0 -6 2 -11t6 -9t9 -6t10 -2q11 0 20 8zM886 402q13 -13 13 -30t-13 -30q-12 -12 -29 -12t-30 12l-273 274q-13 13 -13 30q0 8 3.5 15.5t9.5 13.5q12 13 29 13t29 -13zM965 694q-12 -11 -29 -11q-8 0 -15.5 2.5t-13.5 8.5q17 -18 25 -40
q4 -11 5.5 -23t0.5 -25q0 -8 -2 -16.5t-4.5 -17t-5.5 -16.5q-11 -25 -30 -46v-1q2 -2 4 -4.5t3 -4.5t1.5 -5t0.5 -5q0 -12 -9 -20q-8 -8 -20 -8q-6 0 -11 2t-9 6l-175 176q-7 8 -7 20q0 3 0.5 6.5t2.5 7t5 5.5q7 9 19 9q11 -1 19 -9v-1q22 20 47 31q13 5 25.5 8t25.5 4
q25 2 48 -6q11 -4 21.5 -10t19.5 -15q-7 6 -10 13.5t-3 16t3 15.5t10 13q2 2 5 4t5.5 3.5t5.5 2.5t6.5 1.5t6.5 0.5q8 0 15.5 -3t13.5 -9q4 -5 6.5 -9.5t4 -9.5t2 -11t-1 -11t-4.5 -9.5t-7 -9.5zM965 694z" />
    <glyph glyph-name="uni3487" unicode="&#x3487;" 
d="M528 765q-73 0 -141.5 -23t-123.5 -64t-96.5 -96.5t-64 -123.5t-22.5 -141q0 -91 35.5 -174t95.5 -143t142.5 -95.5t174.5 -35.5q72 0 140.5 22.5t123.5 64t96.5 96.5t64 123.5t22.5 141.5q0 170 -113 297q-109 123 -271 146q-32 5 -63 5zM528 -78q-108 0 -199 52.5
t-144 143.5t-53 199q0 80 31.5 153t84.5 126t126 84.5t153.5 31.5t153.5 -31.5t126 -84.5t84.5 -126t31.5 -153q0 -155 -106 -269q-103 -111 -253 -125q-19 -1 -36 -1zM455 334q12 4 21 11t15 15q13 18 13 42q0 38 -27.5 64.5t-73.5 26.5q-22 0 -40 -6.5t-32 -19.5
q-27 -26 -27 -63q0 -26 13 -44q4 -5 9.5 -10t12.5 -9t15 -7q-10 -3 -18.5 -7.5t-15.5 -10.5t-13 -13q-5 -7 -9 -16t-6 -19t-2 -21q0 -23 8 -42t24 -34q31 -30 82 -30q26 0 46.5 7.5t36.5 22.5q31 30 31 74q0 33 -17 56q-16 22 -46 33zM349 405q0 5 1 10t3 9.5t4.5 9t6.5 7.5
q16 16 40 16q23 0 39 -16q4 -4 7 -8.5t5 -9t3 -10t1 -10.5q0 -22 -15.5 -37.5t-39.5 -15.5q-6 0 -11.5 1t-10.5 3t-9.5 5t-8.5 7q-8 7 -11.5 17t-3.5 22zM454 196q-19 -19 -49 -19q-10 0 -19 2.5t-17.5 7t-14.5 11t-10 14.5q-2 3 -3.5 6.5t-2.5 7t-2 6.5v8q-1 3 -1 6
q0 30 19 49q10 10 22.5 15t26.5 5q30 0 50 -20t20 -50q0 -15 -4.5 -27t-14.5 -22zM702 334q25 9 37 26q12 18 12 42q0 38 -27.5 64.5t-72.5 26.5t-72 -26q-7 -6 -12 -13.5t-8.5 -15.5t-5 -16.5t-1.5 -17.5q0 -26 12 -44q7 -8 16 -15t21 -11q-30 -9 -46 -31q-9 -11 -13 -25.5
t-4 -30.5q0 -9 1 -17.5t3.5 -16.5t6.5 -15.5t9 -14t11 -12.5q16 -15 36.5 -22.5t46.5 -7.5q17 0 31.5 3.5t27.5 10t23 16.5q5 4 8.5 8.5t7 9.5t6 10.5t4.5 11t3 11t1.5 11.5t0.5 12q0 16 -4 30t-12 26q-16 22 -47 33zM596 405q0 21 16 36q8 8 18 12t21 4q24 0 40 -16
q8 -8 12 -17.5t4 -20.5q0 -22 -15.5 -37.5t-39.5 -15.5q-4 0 -8 0.5t-7.5 1.5t-7 2.5t-6.5 3t-6 3.5t-5 5q-8 7 -12 17t-4 22zM701 196q-19 -19 -49 -19q-6 0 -12.5 1t-12 3t-11.5 5q-3 2 -5.5 3.5t-4.5 3.5t-4.5 4t-4 4.5t-3.5 5t-3 5.5q-4 8 -6 17t-2 17q0 30 19 49
q10 10 22 15t27 5q7 0 14 -1.5t13.5 -4t12 -6t10.5 -8.5q20 -20 20 -50q0 -15 -5 -27t-15 -22z" />
    <glyph glyph-name="uniE600" unicode="&#xe600;" horiz-adv-x="1025" 
d="M934 132v416q0 67 -47.5 114.5t-114.5 47.5h-520q-67 0 -114.5 -47.5t-47.5 -114.5v-520q0 -67 47.5 -114.5t114.5 -47.5h520q39 0 73 17.5t57 48t29 68.5q-15 6 -32.5 14t-48.5 22l-62 26q-31 14 -64.5 29t-64.5 29t-54 25q-59 -71 -122 -107t-146 -36q-87 0 -140 46.5
t-46 113.5q2 16 7 31.5t14.5 33t26 31.5t39 24.5t56.5 15t75 0.5q22 -2 43 -6l33 -5q12 -2 34.5 -8.5t28 -8t34.5 -11.5t33 -11q30 54 47 115h-327v32h162v59h-198v35h198v84q0 2 0.5 4t5 6t10.5 4h81v-98h211v-35h-211v-59h172q-23 -95 -70 -175q23 -8 92 -30t128 -40z
M324 58q-44 0 -74.5 12t-43 31t-17 36t-2.5 31q4 18 16.5 34t37.5 28.5t57 12.5q108 0 234 -62q-95 -123 -208 -123z" />
    <glyph glyph-name="uniE602" unicode="&#xe602;" 
d="M512 -191q-223 0 -325 80.5t-102 247.5q0 137 93 263t224 172h220q131 -46 224 -172t93 -263q0 -167 -102 -247.5t-325 -80.5zM630 172q10 0 18.5 5t13 13.5t4.5 17.5q0 15 -10.5 26t-25.5 11h-73v1v1l86 88q17 19 -7 43q-7 7 -16.5 10.5t-18.5 2t-14 -7.5l-74 -79
l-80 80q-5 5 -12.5 5.5t-16 -3t-15.5 -9.5q-10 -11 -12.5 -24t5.5 -20l81 -82q-2 -3 -3 -6h-66v0q-10 0 -18.5 -5t-13 -13.5t-4.5 -18.5q0 -7 2.5 -13.5t7.5 -11.5t12 -8t14 -3v0h73v-36h-73v0q-7 0 -14 -3t-12 -8t-7.5 -11.5t-2.5 -14.5q0 -15 10.5 -25.5t25.5 -10.5v0h73
v-36v-9q0 -19 13 -32.5t32 -13.5t32 13.5t13 32.5q0 4 -1 9h1v36h73q15 0 25.5 11t10.5 25.5t-10.5 25.5t-25.5 11h-73v36h73zM684 717l-7 -10h-1l-64 -81h-218l-64 81q-1 0 -2 1l-7 9l2 2l-1 2l-1 5q0 19 18 25v2q10 2 27 5t60.5 8t76.5 5q16 0 33.5 -0.5t33 -2.5t30.5 -4
t26.5 -4t21 -3.5t13.5 -2.5l5 -1l1 -2q8 -3 13 -9.5t5 -15.5q0 -2 -1 -5l-1 -1z" />
    <glyph glyph-name="uniE603" unicode="&#xe603;" 
d="M954 289q-6 0 -20 5t-31 13t-36 17.5t-37 19.5t-32.5 18.5t-24 14t-10.5 6.5q-8 8 -6.5 16.5t11.5 10.5l79 10q-21 55 -57 101t-87 79t-111 47q-94 22 -187.5 -8t-160.5 -103t-89 -170q-4 -22 -19 -22q-16 1 -59 21q-1 1 -5 2.5t-5 2t-3 2t-2 3t-0.5 4t0 5.5t1.5 8
q15 74 53.5 140t92.5 113t121 79.5t139.5 39t148.5 -8.5q151 -36 251 -155.5t111 -273.5q2 -13 -2 -21.5t-10 -12t-14 -3.5zM631 234q16 0 26.5 -10.5t10.5 -26t-10.5 -26t-26.5 -10.5h-73v-46q0 -19 -13.5 -32.5t-32.5 -13.5t-32.5 13.5t-13.5 32.5v46h-73q-15 0 -26 10.5
t-11 26.5q0 7 3 14t8 11.5t11.5 7.5t14.5 3h73v37h-73q-10 0 -18.5 5t-13.5 13.5t-5 18.5q0 3 0.5 6t1.5 6l2 4q1 3 3 5.5t4 4.5t4 3.5t4.5 3t5.5 1.5l6 2h6h73v3l-81 81q-11 11 -11 26.5t11 26.5t26 11t26 -11l75 -75l74 75q11 11 26.5 11t26.5 -11q4 -4 6.5 -9.5t3.5 -11
t0 -11t-3.5 -11t-6.5 -9.5l-81 -81v-4h74q9 0 17.5 -4.5t13.5 -13t5 -18.5q0 -15 -10.5 -26t-25.5 -11h-74v-37h74h-1zM263 182q8 -5 10 -12.5t-2.5 -13.5t-12.5 -6q-5 -1 -14.5 -2t-19.5 -1.5t-19 -1.5t-15 -2h-6q34 -79 99 -135.5t150 -76.5q95 -22 187.5 7t159 100.5
t87.5 168.5q1 0 1 2q1 3 2 10q1 6 2.5 9t6 7t12.5 0q12 -4 36 -11.5t35 -10.5q7 -1 9.5 -3.5t2 -6.5t-1.5 -10q0 -4 -2 -11q-28 -126 -113.5 -219t-205 -130.5t-243.5 -8.5q-151 36 -251 155t-112 273q-1 25 14 32.5t34 -3.5q7 -4 32.5 -18.5t54 -31t53 -31t30.5 -18.5z" />
    <glyph glyph-name="uniE604" unicode="&#xe604;" 
d="M896 352q0 168 -111 276t-273 108q-159 0 -271.5 -112t-112.5 -272h128q53 0 90.5 -37.5t37.5 -90.5v-192q0 -51 -38 -88.5t-90 -39.5h-128q-53 0 -90.5 37.5t-37.5 90.5v192q0 24 8.5 45.5t23 38t34.5 27.5q0 2 -0.5 5.5t-0.5 5.5t-0.5 5.5t-0.5 5.5v5v6q0 88 35.5 168
t95.5 138t143 92t174 34q186 0 317 -126.5t131 -305.5q0 -9 -2 -33q30 -16 48 -46t18 -65v-192q0 -53 -37.5 -90.5t-90.5 -37.5v-96q0 -13 -9.5 -22.5t-22.5 -9.5t-22.5 9.5t-9.5 22.5v96h-10h-21h-23h-10q-52 2 -90 39.5t-38 88.5v192q0 53 37.5 90.5t90.5 37.5h128z
M228 -32h28q27 0 45.5 18.5t18.5 45.5v192q0 26 -19 45t-45 19h-40q-24 -71 -24 -144q0 -92 36 -176zM64 224v-192q0 -26 19 -45t45 -19h30q-14 41 -22 85.5t-8 90.5q0 73 20 144h-20q-26 0 -45 -19t-19 -45zM808 288h-40q-26 0 -45 -19t-19 -45v-192q0 -26 19 -45t45 -19
h28q36 84 36 176q0 37 -6 73.5t-18 70.5zM960 224q0 26 -19 45t-45 19h-20q20 -71 20 -144q0 -46 -8 -90.5t-22 -85.5h30q27 0 45.5 18.5t18.5 45.5v192z" />
    <glyph glyph-name="uniE607" unicode="&#xe607;" 
d="M773 748h-522q-25 0 -46.5 -12.5t-34 -34t-12.5 -46.5v-708q0 -26 12.5 -47.5t34 -34t46.5 -12.5h522q38 0 65.5 27.5t27.5 66.5v708q0 38 -27.5 65.5t-65.5 27.5zM456 692h112q8 0 13 -5.5t5 -12.5q0 -4 -0.5 -6.5t-2.5 -5t-4 -4t-5 -2.5t-6 -1h-112q-8 0 -13.5 5.5
t-5.5 13t5.5 13t13.5 5.5zM512 -91q-23 0 -39.5 16.5t-16.5 39.5t16.5 39.5t39.5 16.5t39.5 -16.5t16.5 -39.5t-16.5 -39.5t-39.5 -16.5zM754 96h-484v503h484v-503z" />
    <glyph glyph-name="uniE609" unicode="&#xe609;" 
d="M891 -119h-751q-14 0 -24.5 10.5t-10.5 23.5v213q0 26 11 37t25 -2l102 -79q33 -29 45 -14l117 141q29 36 45 22l101 -87q40 -34 53 -18l249 301q17 18 33.5 22.5t27 -6.5t10.5 -34v-496q0 -5 -1.5 -10t-4.5 -9.5t-7.5 -8t-9.5 -5t-10 -1.5zM599 250q-15 -19 -38 -21
q-23 -3 -41 12l-113 96l-114 -150q-2 -3 -4 -5t-5 -4l-4 -4q-3 -2 -6 -3.5t-6 -2.5t-6 -1.5t-6.5 -1t-6.5 -0.5q-9 0 -18 3t-17 9l-99 81q-17 15 -19.5 37.5t11.5 40.5q10 12 23.5 17t28 2.5t26.5 -11.5l55 -45l114 151q14 18 37.5 21t41.5 -13l114 -95l147 184l-41 34
q-22 18 -18 35t32 23l213 45q28 6 35 -6t-10 -34z" />
    <glyph glyph-name="uniE60A" unicode="&#xe60a;" 
d="M676 639q7 -25 8 -34.5t0 -33.5q0 -1 -3.5 -40t-1.5 -50q0 -7 1.5 -10.5t4.5 -9t5 -9.5q12 -24 3 -72q-5 -26 -14 -39q-3 -4 -9 -7l-12 -8q-6 -3 -8 -8q-4 -6 -5.5 -14.5t-1.5 -16t-1 -16.5t-3 -15q-2 -9 -13.5 -22.5t-12.5 -30.5q5 0 13.5 -1.5t12.5 -1.5
q1 -1 5.5 -10.5t6 -13.5t6 -12.5t8 -13t7.5 -10t8 -7.5q23 -6 41 -12q28 -11 82.5 -34.5t66.5 -28.5q10 -4 26.5 -9.5t27.5 -10t24 -11.5t21.5 -17t12.5 -23q0 -9 1.5 -65t0.5 -80h-952q0 23 1.5 79t1.5 66q3 11 10.5 20t15.5 15t19.5 11t21 8.5t23 8t21.5 8.5q14 6 68 29
t81 34q27 8 41 12q4 2 8.5 7.5t7.5 10t8 13t6.5 12.5t6 13.5t4.5 10.5l20 4q-3 14 -13.5 25.5t-12.5 18.5q-1 7 -3.5 35t-3.5 43l-5 1l-10 2q-5 1 -6 2q-7 5 -12 14t-8 23.5t-4 24t-2.5 27t-1.5 18.5q0 4 7 18t4 27q-37 177 75 213q24 10 40.5 15t46 10.5t58.5 0t56 -21.5
l19 -18l30 -5q7 -4 13.5 -13.5t8.5 -16.5l3 -8v0zM676 639zM476 68h64v-226h-64v226z" />
    <glyph glyph-name="uniE60B" unicode="&#xe60b;" 
d="M512 725q-51 0 -100 -11.5t-92 -33t-80.5 -51.5t-67.5 -67.5t-51.5 -80.5t-33 -92t-11.5 -100q0 -89 34.5 -170t93 -139t139 -92.5t169.5 -34.5q71 0 137.5 22t120 62t94 94t62.5 120.5t22 137.5q0 88 -34.5 169t-93 139.5t-139 93t-169.5 34.5zM607 100q5 -5 7 -11.5
t1 -12.5t-6 -11q-7 -6 -17 -5.5t-18 8.5l-203 200q-9 9 -8 21q0 5 2 10.5t6 9.5l203 201q8 7 18 8t17 -6t6.5 -17t-8.5 -18l-191 -188zM607 100z" />
    <glyph glyph-name="uniE60E" unicode="&#xe60e;" 
d="M511 747q-91 0 -174 -35t-142.5 -95t-95 -143t-35.5 -174q0 -61 16 -119t44.5 -107t70 -90.5t90.5 -70.5t107 -45t119 -16q159 0 282 100l50 48q55 61 85.5 138t30.5 162q0 45 -9 89.5t-26 84.5t-41.5 76t-54.5 66t-66.5 54.5t-76 41.5t-84 26t-90.5 9zM735 62l-1 1v-1
h-446v1v-1q-8 0 -14.5 4t-10 10.5t-3.5 14.5q0 86 51.5 153.5t131.5 90.5q-33 19 -52 51.5t-19 71.5q0 59 40.5 100.5t98.5 41.5q38 0 70.5 -19t51 -51.5t18.5 -71.5t-19.5 -71.5t-51.5 -51.5q80 -23 131.5 -90.5t51.5 -153.5q0 -12 -8.5 -20.5t-19.5 -8.5z" />
    <glyph glyph-name="uniE610" unicode="&#xe610;" 
d="M697 649q-1 11 0 24q1 7 5 13.5t8 10.5t9 8h29v43h-43v-35q-8 -10 -55 -33q-7 4 -13 6.5t-12.5 5.5t-13.5 5.5t-14 4.5l-14 4l-14 2q-7 2 -15 3l-14 2q-8 1 -16 1h-15q-37 0 -72 -8.5t-66 -24.5q-41 19 -52 29v38h-43v-43h27q1 -1 3 -2.5t4 -3.5t4 -4.5t4 -4.5l2 -6
q2 -2 3 -5t1 -6q1 -12 1 -21q-86 -69 -86 -170h-1v-455h121v-175h88v175h125v-175h87v175h122v455h-1q0 99 -83 167zM700 109h-378v296h378v-296zM280 482q0 20 5 39.5t13.5 37t21 33.5t28 29t34 24t38.5 18.5t43 11.5t46 4q47 0 89.5 -15.5t73 -42t48.5 -63t18 -76.5h-458z
M360 575h43v-43h-43v43zM618 575h44v-43h-44v43zM105 448h84v-342h-84v342zM835 448h84v-342h-84v342z" />
    <glyph glyph-name="uniE612" unicode="&#xe612;" 
d="M889 366q32 -18 32 -45t-32 -46l-624 -360q-32 -18 -55.5 -5t-23.5 51v720q0 37 23.5 50.5t55.5 -5.5z" />
    <glyph glyph-name="uniE613" unicode="&#xe613;" 
d="M962 -39h-73q-5 35 -24.5 64t-51 45.5t-67.5 16.5t-67.5 -16.5t-51.5 -45.5t-24 -64h-56q-22 0 -38 15.5t-16 38.5v487q0 22 16 38t38 16h415q15 0 27.5 -7t19.5 -19.5t7 -27.5v-487q0 -23 -15.5 -38.5t-38.5 -15.5zM403 -39h-37q-5 35 -25 64t-51 45.5t-67.5 16.5
t-67.5 -16.5t-51 -45.5t-25 -64h-37q-15 0 -25.5 10.5t-10.5 25.5v198q0 35 33 96t76.5 109t70.5 48h217q10 0 18 -5t13 -13.5t5 -17.5v-415q0 -15 -10.5 -25.5t-25.5 -10.5zM331 358q-57 2 -125 0q-15 -1 -41 -29.5t-47.5 -68t-21.5 -65.5v-18h235v181zM222.5 33
q37.5 0 64 -26.5t26.5 -64t-26.5 -64t-63.5 -26.5q-25 0 -46 12t-33 33t-12 46q0 37 26.5 63.5t64 26.5zM750.5 33q39.5 0 67 -28t27.5 -67t-27.5 -67t-67 -28t-67 28t-27.5 67t27.5 67t67 28z" />
    <glyph glyph-name="uniE618" unicode="&#xe618;" 
d="M914 -26q0 -7 -1 -13.5t-3.5 -13t-6 -12t-7.5 -10.5t-9 -9t-10.5 -7.5t-12 -6t-13 -3.5t-13.5 -1h-652q-31 0 -53.5 22.5t-22.5 53.5v313h-78v-313q0 -31 12 -59.5t33 -49.5t49.5 -33t59.5 -12h652q64 0 109 45t45 109v313h-78v-313zM838 780h-652q-64 0 -109 -45
t-45 -109v-313h78v313q0 31 22.5 53.5t53.5 22.5h652q21 0 38.5 -10t27.5 -28t10 -38v-313h78v313q0 31 -12 59.5t-33 49.5t-49.5 33t-59.5 12zM509 181q-76 62 -134 133q-13 17 -21 29t-14.5 26t-5 26.5t11.5 21.5l-191 191q-11 -13 -19 -36t-7.5 -67t16.5 -95t63 -124
t122 -149q79 -81 154.5 -132.5t129.5 -69t100 -19t70.5 7.5t35.5 21l-187 186q-9 -10 -20.5 -11.5t-27.5 7t-32 20t-44 34.5zM887 53l-145 145q-6 6 -13.5 8t-15 0t-13.5 -8l-52 -53l187 -186l52 52q9 10 9 21.5t-9 20.5zM413 484v1q9 9 9 21t-9 20l-150 149q-8 9 -20 9
t-21 -9l-53 -52l192 -191z" />
    <glyph glyph-name="uniE61A" unicode="&#xe61a;" 
d="M951 273v1v3q0 27 -3 50t-12 48.5t-23 34.5q-35 25 -75 -29q-3 -4 -17 -23t-19 -25.5t-19 -23.5t-22 -23.5t-22.5 -18t-26.5 -16.5t-28 -9.5t-33 -4.5h-274q-17 0 -33 4.5t-28 9.5t-26.5 16.5t-22.5 18t-22 23.5t-19 23.5t-19 25.5t-18 23q-3 5 -6.5 9t-12 12t-16 11.5
t-18.5 3.5t-21 -7q-36 -25 -38 -133v-3v-1v-4v-9v-14v-22v-29v-144v-12q1 -12 2 -21t6.5 -22t14 -23t24.5 -22t38 -20.5t55.5 -17.5t75 -14.5t98 -9t123.5 -3.5q86 0 154 5.5t113 14.5t77.5 22.5t49.5 26t27 29.5t12.5 28t3.5 27v12v144v21v18v14v11v7v5v2zM266 -38
q-49 0 -83.5 34.5t-34.5 83t34.5 83t83.5 34.5q-13 0 -22 -34.5t-9 -83t9 -83t22 -34.5zM266 -38q13 0 22 34.5t9 83t-9 83t-22 34.5q49 0 83.5 -34.5t34.5 -82.5q0 -24 -9.5 -46t-25 -37.5t-37.5 -25t-46 -9.5zM543 67l-11 -19q-3 -5 -6.5 -11t-5.5 -11q-2 -3 -6.5 -3
t-5.5 3q-3 5 -13 22l-10 19q-4 6 -1 11t11 5h37q9 0 12 -5t-1 -11zM762 -38q-49 0 -83.5 34.5t-34.5 83.5q0 19 6 37t17 32t25.5 25t32.5 17t37 6q-13 0 -22 -34.5t-9 -83t9 -83t22 -34.5zM762 -38q13 0 22 34.5t9 83t-9 83t-22 34.5q49 0 83.5 -34.5t34.5 -83t-34.5 -83
t-83.5 -34.5zM378 529h272q8 0 15.5 0.5t15.5 2.5q-14 33 -38.5 58t-58 39t-71 14t-70.5 -14t-58 -39t-38 -57q6 -2 13 -3q4 -1 8 -1h10zM92 439q20 13 43 13q46 0 84 -50q2 -3 4.5 -6.5t5.5 -6.5q21 -28 32.5 -42t31 -32.5t40 -26.5t43.5 -8h276q23 0 43.5 8t40 26.5
t31 32.5t32.5 42l10 13q22 28 43.5 39t40.5 11q11 0 22 -3t21 -10q7 25 11 55t4 59q-6 67 -37 84q-35 20 -75 -24q-2 -2 -19.5 -22t-22.5 -24.5t-22 -20.5t-27 -21.5t-27 -14.5t-34 -12t-36 -3h-274q-19 0 -36 3t-34 12t-27.5 14.5t-27 21.5t-21.5 20.5t-22.5 24.5t-19.5 22
q-40 44 -75 24q-31 -17 -37 -84q0 -61 15 -114v0z" />
    <glyph glyph-name="uniE61B" unicode="&#xe61b;" 
d="M333 253q-43 -4 -72 -27q-21 -18 -25 -41.5t7 -44.5t40 -35.5t69 -14.5q48 0 95 29t86 80q-63 31 -108.5 45t-91.5 9zM524 731q-120 3 -224 -54t-166 -157.5t-65 -221t53.5 -224t157 -165.5t221.5 -65q145 -4 265 80l157 -43l-42 160q72 107 75 235q5 169 -105 298
q-105 124 -265 151q-31 5 -62 6zM819 68q-164 70 -220 97q-47 -57 -108 -88.5t-125 -31.5q-60 0 -102.5 30t-48.5 70v-1q-2 6 -4 16.5t4.5 39.5t26.5 53q26 32 79 45q74 18 249 -40q3 7 8.5 15.5t9 15.5t8.5 16t8.5 16.5t7.5 16.5t6 18h-307v38h154v38h-173v38h173v76h95
v-76h173v-38h-173v-38h26q16 0 49.5 -0.5t56.5 0.5h22q-3 -19 -12 -42t-18 -37.5t-25 -39t-22 -33.5q18 -7 41.5 -16.5t43.5 -17.5l30 -12q91 -33 112 -38q-8 -24 -19.5 -46.5t-25.5 -43.5z" />
    <glyph glyph-name="uniE61C" unicode="&#xe61c;" 
d="M990 308q0 21 -22.5 35.5t-55.5 14.5q-20 0 -38 -6l-59 168q-4 6 -8.5 16t-7 16t-8 10t-13.5 4h-93l-13 68q-4 14 -19.5 21t-33.5 7h-212q-7 0 -13.5 -1t-13 -3.5t-12 -5.5t-9.5 -7.5t-5 -10.5l-13 -68h-93q-6 0 -11 -2.5t-9 -8t-6 -10.5t-5.5 -13t-5.5 -12l-59 -168
q-6 2 -12 3.5t-12.5 2t-13.5 0.5q-33 0 -55.5 -14.5t-22.5 -35.5q0 -14 10.5 -25.5t28 -18.5t39.5 -7h1v-1v-2q-2 -41 13 -146t25 -154q5 -25 14.5 -33t27.5 -8h79q16 0 25 12t9 29v44q18 -2 33 -3q195 -12 344 0q15 1 33 3v-44q0 -17 9 -29t25 -12h79q16 0 27 11.5t15 29.5
q2 5 5 15.5t6.5 25t7.5 31.5t8 36t8 38.5t7.5 38.5t6 37.5t3.5 33.5t1 27.5t-2 20.5q28 3 47 17t19 33zM248 90q-33 0 -56.5 24t-23.5 58t23.5 58t56.5 24t56 -24t23 -58q0 -17 -6 -32t-16.5 -26t-25.5 -17.5t-31 -6.5zM646 322q-12 -2 -29 -3t-36 -1.5t-39.5 -0.5
t-40.5 0.5t-38 1t-32.5 1.5t-23.5 2q-19 2 -53 6t-59 7l-25 3q-17 0 -28 12t-11 29l19 80q4 15 8.5 23t11.5 12t18 4h450q16 0 24 -8.5t14 -30.5l19 -80q0 -17 -11 -29t-27 -12q-4 -2 -111 -16zM791 90q-33 0 -56 24t-23 58t23 58t56 24t56.5 -24t23.5 -58q0 -10 -2 -19
t-6 -17t-9.5 -15t-12.5 -12.5t-14.5 -9.5t-16.5 -6.5t-19 -2.5z" />
    <glyph glyph-name="uniE61F" unicode="&#xe61f;" 
d="M958 403l-309 45l-137 279l-138 -279l-308 -45l223 -217l-53 -307l276 145l275 -145l-52 307zM512 93l-195 -103l37 217l-157 154l217 31l98 198l97 -198l218 -31l-158 -154l37 -217z" />
    <glyph glyph-name="uniE620" unicode="&#xe620;" 
d="M212 494q-24 -145 -100 -298v-107q5 7 21.5 32t21 31.5t16 25.5t16.5 28.5t12 23t12 26.5v-340h108v388q48 -84 91 -141v116q-2 2 -12.5 21.5t-13 24.5t-12 23t-13.5 27t-11.5 26.5t-11.5 30t-9 29t-8 33.5h66v82h-66v108h-108l1 -108h-91v-82h91zM913 -14
q-66 23 -116 49.5t-84 56.5q44 45 77 99t57 129h-99q-10 -34 -28.5 -66.5t-31.5 -49.5l-39 -49q-66 73 -99 165h-91q24 -76 53.5 -129.5t71.5 -98.5q-66 -57 -199 -102v-74q161 52 264 119q91 -59 264 -116v67zM913 535v83h-198v66h-107v-66h-190v-83h495zM616 494h-99
q-5 -16 -12 -28t-16.5 -22t-22.5 -18.5t-28.5 -16t-35.5 -14.5v-50q89 8 140.5 43.5t74.5 108.5zM913 398q-24 8 -40.5 15.5t-31.5 18.5t-25.5 26t-17.5 36h-99q20 -70 70 -104t144 -46v54z" />
    <glyph glyph-name="uniE621" unicode="&#xe621;" 
d="M463 582v-133v-26l25 4q31 4 60 4q105 0 194.5 -52t141.5 -141.5t52 -195.5v-9q-35 61 -94 106t-135 70t-159 25q-32 0 -66 -4l-19 -3v-20v-139l-176 125l-186 132l186 131zM485 625l-211 -150l-212 -150l212 -151l211 -150v183q32 5 63 5q144 0 256 -74.5t144 -188.5
q11 47 11 93q0 84 -32.5 160t-87.5 131.5t-131.5 88t-159.5 32.5q-31 0 -63 -5v176z" />
    <glyph glyph-name="uniE622" unicode="&#xe622;" 
d="M640 224v-166q0 -11 -7.5 -18.5t-18.5 -7.5h-230v539q0 37 -36 55l-220 110h486q11 0 18.5 -7.5t7.5 -18.5v-230h64v282q0 16 -11 27t-27 11h-628q-7 0 -14.5 -3t-12.5 -8t-8 -12.5t-3 -14.5v-756q0 -23 21 -34q4 -2 47.5 -25.5t94 -51t107 -58t85.5 -46.5q9 -4 15.5 -3
t10 5t3.5 10v165h282q16 0 27 11.5t11 26.5v218h-64zM960 352l-192 192v-128h-320v-128h320v-128z" />
    <glyph glyph-name="uniE623" unicode="&#xe623;" 
d="M313 524q0 52 -36.5 88t-88.5 36q-33 0 -62 -16.5t-45.5 -45t-16.5 -62.5q0 -52 36.5 -88t87.5 -36q21 0 40 6t34 17.5t26.5 27t18 34.5t6.5 39zM562 698q-41 0 -75.5 -20t-54.5 -54.5t-20 -74.5q0 -62 44 -105.5t106 -43.5t105.5 43.5t43.5 105.5t-43.5 105.5
t-105.5 43.5zM164 250h-50v-298h547v298h-298v50h298v50h-497v-100zM213 151h150v-150h-150v150zM761 250v-199l199 -149v498z" />
    <glyph glyph-name="uniE624" unicode="&#xe624;" 
d="M945 -14q-19 29 -41.5 55t-46.5 46t-49.5 37t-52 29.5t-53 22.5t-53 16.5t-51 11.5t-49 7.5t-44.5 3.5t-40 1q-40 0 -72 -4v-172l-326 261l326 260v-163h4q136 0 254 -64q94 -51 172 -140q40 -45 73.5 -98t43.5 -73.5t14 -31.5zM465 226q129 0 239 -40q132 -48 216 -149
q-44 83 -105 151q-18 20 -37.5 39.5t-45 40t-52.5 37.5t-60 32.5t-67 26.5t-74 17.5t-82 6.5h-9l-6 -1v153l-298 -239l298 -240v160l5 1q30 4 78 4z" />
    <glyph glyph-name="uniE626" unicode="&#xe626;" 
d="M512 812q-139 0 -257 -68.5t-186.5 -186.5t-68.5 -257t68.5 -257t186.5 -186.5t257 -68.5t257 68.5t186.5 186.5t68.5 257t-68.5 257t-186.5 186.5t-257 68.5zM512 -180q-98 0 -186.5 38t-153 102.5t-102.5 153t-38 186.5t38 186.5t102.5 153t153 102.5t186.5 38
t186.5 -38t153 -102.5t102.5 -153t38 -186.5t-38 -186.5t-102.5 -153t-153 -102.5t-186.5 -38zM659 549l-23 23l-272 -272l272 -272l23 23l-249 249z" />
    <glyph glyph-name="uniE628" unicode="&#xe628;" 
d="M79 -110h-37q-8 0 -13.5 5.5t-5.5 13.5v36q-4 55 37 106q24 30 61 51q43 24 99 34h1q57 8 91 22q-1 7 -1 16q-2 22 -11 42t-17.5 30.5t-23.5 28.5q-17 19 -24 29q-31 45 -33 97v1q0 12 3 23t10 21q-9 61 0 119q2 24 14 48t21 34.5t18 17.5q-2 11 0 22q4 18 20 33.5
t53 17.5q3 0 8 1h2q6 0 10 -2t7 -6.5t3 -9.5q1 -16 -14 -19l-3 -1h-3h-8q-6 0 -10.5 -1t-8 -2t-6.5 -2l-5 -3q-2 -1 -3.5 -3t-2 -3t-1 -3t-1 -2.5t-0.5 -2.5q-1 -3 -0.5 -7t1.5 -8q4 -10 -5 -19l-7 -7q-6 -4 -12.5 -11.5t-17 -27t-11.5 -37.5v-2h-1q-9 -58 1 -116
q1 -3 0.5 -6t-1.5 -5.5t-3 -4.5q-5 -5 -7.5 -11t-2.5 -15q3 -42 27 -77q2 -3 5.5 -7.5t7 -8t8.5 -9.5q17 -20 26.5 -32.5t20.5 -37.5t14 -53q2 -21 1 -31q-1 -8 -7 -13q-12 -10 -46 -19.5t-69 -14.5q-94 -16 -138 -71q-32 -40 -28 -81v-1v-19h18q8 0 13.5 -5.5t5.5 -13
t-5.5 -13t-13.5 -5.5zM751 -164q-5 0 -10 3q-15 9 -38.5 15t-34.5 7t-18 2h-21l-33 -1h-438q-7 0 -12.5 5.5t-5.5 13.5v21q-2 37 20 75q19 34 55 57q44 28 109 40h1q32 4 66 13q25 7 41.5 14.5t19 10t3.5 4.5l1 4q2 10 -1 37q-2 30 -14.5 57.5t-22.5 41.5t-29 35
q-17 19 -23 28q-28 40 -30 86v1q0 6 1.5 11.5t4.5 10t5 6.5l6 6v0q0 2 -1 6v3q-12 65 -1 130q0 14 5 28t11 23.5t13.5 18.5t10.5 12t6 5q11 10 15 17l1 1q0 1 -1 2q-6 14 -4 24q1 4 3 8t7.5 8.5t13.5 6.5q7 2 20 2l1 1q42 2 66 0q47 -4 87 -13t63.5 -18.5t42 -21.5t24 -16.5
t8.5 -7.5v-1q20 -24 30 -59q2 -10 4 -19q3 -22 4 -49t-1 -42q0 -10 -1.5 -20.5t-2.5 -22.5q-1 -1 -1 -2t1 -2q0 -1 1 -2l1 -1q9 -10 12 -18q1 -4 1.5 -7.5t0.5 -7.5v-1q-3 -46 -30 -86q-6 -9 -23 -28q-9 -10 -14 -16t-14 -17.5t-14 -21t-11 -22.5t-9.5 -27t-4.5 -30
q-2 -27 -1 -37l2 -4q0 -2 3 -4.5t19 -10t42 -14.5q34 -9 66 -13h1q65 -13 109 -41q36 -24 56 -57q21 -37 19 -74v-21q0 -8 -5.5 -13.5t-13.5 -5.5h-119q-1 0 -3 1h-27q-5 0 -9.5 2.5t-7 6.5t-2.5 9q0 8 5.5 13.5t13.5 5.5h49h3h78v3v1v1l1 1q0 2 -0.5 5.5t-1 6.5t-1.5 8
t-2.5 10t-4.5 11l-6 12q-15 25 -44 44q-37 23 -94 34q-5 1 -12.5 2t-25 4.5t-33.5 7.5q-77 20 -88 52q-7 13 -3 57q3 36 17.5 68.5t26 48t32.5 39.5q3 4 4 6l5 4q3 3 4.5 5.5t3.5 4.5t3 5q20 29 23 66v3l-3 3q-3 3 -4 5q-11 13 -8 34q1 11 2 20.5t2 18.5q2 50 -3 83
q0 1 -1 1q0 6 -2 15q-4 13 -9.5 24t-12.5 20q-13 13 -43 28q-63 29 -157 37h-20h-20q-9 0 -21 -1h-1h-1h-5q5 -13 2 -23q-2 -6 -6 -12q-4 -7 -10 -13t-13 -12l-9 -10q-6 -5 -14.5 -21t-9.5 -30v-3q-10 -58 1 -118v-2q5 -27 -11 -41v-1l-5 -4v-1q3 -37 23 -66q5 -8 21 -25
q12 -14 18.5 -22t18 -24.5t18 -31t13 -35.5t8.5 -43q4 -44 -3 -57q-6 -16 -27.5 -29t-61.5 -23q-12 -3 -24.5 -6t-22.5 -4.5t-15.5 -2.5t-8.5 -1q-19 -4 -36 -8.5t-31.5 -11t-26.5 -14.5q-29 -19 -44 -45q-17 -29 -15 -54v-1v-3h418h34h21q68 -1 111 -30q5 -3 7 -7.5t2 -9.5
t-3 -9q-2 -3 -4.5 -4.5t-5.5 -2.5t-6 -1zM667 126l2 -2z" />
    <glyph glyph-name="uniE629" unicode="&#xe629;" 
d="M513 749q-91 0 -174 -35.5t-143.5 -95.5t-96 -143t-35.5 -175q0 -73 23 -141t64.5 -123.5t96.5 -97t123.5 -64t141.5 -22.5q91 0 174 35.5t143 95.5t95.5 143t35.5 174.5t-35.5 174.5t-95.5 143t-143 95.5t-174 35.5zM511 77q-5 0 -10.5 1t-10 3.5t-8.5 6t-7 7.5
t-5.5 8.5t-3.5 10t-1 10.5q0 20 13.5 34t32.5 14q5 0 10.5 -1.5t10 -3.5t8.5 -5.5t7 -7.5t5.5 -8.5t3.5 -10t1 -11.5q0 -19 -13.5 -33t-32.5 -14zM640 376q-9 -19 -23 -32q-4 -4 -10.5 -11t-15.5 -15t-21 -19q-9 -9 -15 -16q-2 -2 -3 -4l-4 -4q-1 -2 -1 -4q-3 -6 -4.5 -11.5
t-4.5 -19.5q-6 -30 -33 -30q-15 0 -25 10q-3 3 -5 7.5t-3 9.5t-1 12q0 24 7 42t19 31q2 2 4 4.5t4.5 5t5.5 5t5.5 5.5t6 6t6.5 6q6 5 11 9.5t8 8.5l7 6q8 8 13 18t5 22q0 23 -16 39q-6 5 -12.5 8.5t-14 5.5t-16.5 2q-30 0 -45 -16q-4 -6 -8.5 -13t-8.5 -15.5t-7 -18.5
q-9 -33 -36 -33q-15 0 -26 12q-5 5 -8 11.5t-3 12.5q0 28 17 56t49.5 46t75.5 18q41 0 71.5 -15t47.5 -41.5t17 -57.5q0 -13 -2.5 -23.5t-7.5 -19.5z" />
    <glyph glyph-name="uniE62B" unicode="&#xe62b;" 
d="M512 433q-62 0 -105.5 -44t-43.5 -105q0 -41 20 -75.5t54.5 -54t74.5 -19.5q62 0 105.5 43.5t43.5 105.5q0 40 -20 74.5t-54 54.5t-75 20zM874 507h-108q-10 0 -20.5 14.5t-14.5 28.5l-32 69q-3 8 -9 16.5t-14 14.5t-15 6h-298q-17 0 -33 -27q-3 -5 -4 -10l-28 -72
q-4 -13 -14.5 -26.5t-20.5 -13.5h-108q-90 0 -90 -64v-405q0 -18 7 -34.5t19 -29t28.5 -19.5t35.5 -7h719q37 0 61.5 26.5t24.5 63.5v405q0 64 -86 64zM512 60q-92 0 -158 65.5t-66 158t66 158t158 65.5q46 0 87 -17.5t71 -47.5t48 -71.5t18 -86.5q0 -101 -76 -168
q-64 -56 -148 -56z" />
    <glyph glyph-name="uniE62C" unicode="&#xe62c;" 
d="M529 -167q-99 0 -189 39q-43 18 -82 44t-72 60q-67 67 -104 154q-39 90 -39 189t39 189q37 87 104 154.5t154 104.5q90 38 189 38t189 -38q10 -4 19.5 -8.5t18.5 -9.5l18 -10q9 -5 18 -11l16 -12l18 -12q8 -6 16 -13t15.5 -14t15.5 -14q67 -68 104 -155q38 -90 38 -189
q0 -82 -27 -158q-8 -25 -19 -48.5t-24.5 -45.5t-29.5 -43q-1 -2 -3 -4t-6 -7t-8 -9q-14 -17 -36 -18q-9 0 -20.5 4.5t-22.5 15.5l-309 306v378q0 7 5.5 12.5t13.5 5.5t13.5 -5.5t5.5 -12.5v-362l297 -295h1q8 -9 15 -9q5 0 9 4v1h1q7 8 14 17v1q44 57 68 126q25 71 25 146
q0 91 -36 175q-34 80 -96 142q-31 31 -66.5 55t-75.5 41q-28 12 -56.5 20t-58.5 12t-60 4q-91 0 -174 -36q-20 -8 -39 -18.5t-37 -22.5t-34.5 -25.5t-32.5 -29.5q-62 -62 -96 -142q-35 -84 -35 -175t35 -174q34 -81 96 -143t143 -96q83 -35 174 -35q112 0 210 52
q6 4 22.5 11t50.5 16.5t65 11.5q8 1 13.5 -4t6 -13t-4.5 -14t-12 -6q-28 -2 -59 -11t-45.5 -15.5t-18.5 -8.5q-107 -57 -228 -57z" />
    <glyph glyph-name="uniE62D" unicode="&#xe62d;" 
d="M512 480q-49 0 -90.5 -24t-65.5 -65.5t-24 -89.5q0 -74 52.5 -126.5t127.5 -52.5q36 0 69 14t57 38t38.5 57t14.5 70q0 85 -66 139q-50 40 -113 40zM512 166q-56 0 -95.5 39.5t-39.5 95t39.5 95t95.5 39.5q22 0 42.5 -6.5t37 -19t28.5 -29t19 -37t7 -42.5
q0 -28 -10.5 -52.5t-28.5 -42.5t-43 -29t-52 -11zM960 211v179l-130 22q-3 9 -6.5 18t-8.5 17l77 107l-127 127l-107 -77q-16 9 -35 15l-22 130h-179l-22 -130q-8 -2 -16.5 -6t-18.5 -9l-107 76l-126 -126l76 -107q-9 -17 -15 -35l-130 -22v-179l130 -21q4 -10 7.5 -19.5
t8.5 -17.5l-77 -106l127 -127l107 76q20 -9 34 -13l22 -130h179l22 130q20 6 36 15l107 -77l127 127l-77 107q10 21 14 35zM787 202q-2 -6 -5 -13l-6 -14q-12 -24 4 -46l54 -77l-73 -73l-76 55q-6 4 -12.5 6.5t-13.5 2.5q-11 0 -21 -6l-14 -6q-7 -3 -15 -6q-26 -8 -30 -35
l-16 -93h-103l-15 93q-5 28 -32 36q-11 3 -28 11q-9 4 -19 4q-14 0 -26 -8l-76 -55l-73 73l54 76q16 23 3 47q-7 12 -12 29q-8 26 -35 31l-93 15v103l93 16q8 1 15.5 5.5t12.5 11t7 14.5q2 7 5 14l6 14q4 7 5 15.5t-1 16.5t-7 14l-54 76l73 72l76 -53q2 -2 4.5 -3.5t5 -2.5
t5 -1.5t5.5 -1t6 -0.5q10 0 20 5q17 9 28 12q27 8 32 36l15 92h103l16 -92q2 -13 10.5 -22.5t20.5 -13.5q7 -2 13.5 -5t12.5 -6q5 -3 10.5 -4.5t11.5 -1.5q7 0 14 2.5t12 6.5l77 55l73 -73l-55 -76q-17 -24 -3 -49q7 -11 11 -26q8 -27 36 -31l92 -16v-103l-92 -15
q-28 -5 -36 -32z" />
    <glyph glyph-name="uniE62F" unicode="&#xe62f;" 
d="M728 117q97 108 97 253q0 62 -19.5 119.5t-54.5 104t-81.5 81.5t-104 54.5t-119.5 19.5q-52 0 -101 -14t-90.5 -38t-76.5 -59t-59 -76.5t-38 -91t-14 -100.5q0 -103 51 -190t138 -138t190 -51q142 0 248 93l231 -230l33 33zM446 38q-90 0 -166.5 44.5t-121 121
t-44.5 166.5t44.5 166.5t121 121t166.5 44.5q67 0 128.5 -26.5t106 -71t71 -106t26.5 -128.5q0 -90 -44.5 -166.5t-121 -121t-166.5 -44.5z" />
    <glyph glyph-name="uniE632" unicode="&#xe632;" 
d="M951 -154h-874q18 124 97.5 219.5t197.5 136.5q-65 37 -103 102.5t-38 144.5q0 118 83 201t201 83q59 0 111.5 -22t90.5 -60t60.5 -91t22.5 -111q0 -52 -18 -99.5t-49.5 -84.5t-73.5 -63q115 -41 194.5 -136.5t97.5 -219.5z" />
    <glyph glyph-name="uniE639" unicode="&#xe639;" 
d="M945 -14q-37 57 -88.5 100.5t-101 67.5t-106 38.5t-99 19t-85.5 4.5h-15q-7 0 -13.5 -0.5t-12.5 -0.5t-10.5 -0.5t-8.5 -1t-7 -0.5t-5 -1v-172l-326 261l326 260v-163h4q136 0 254 -64q94 -51 172 -140q40 -45 73.5 -98t43.5 -73.5t14 -31.5zM465 226q54 0 116 -8.5
t123 -31.5q132 -48 216 -149q-8 16 -18 32.5t-23 36t-29.5 41t-33.5 41.5q-34 38 -73 70t-91 63t-117.5 49t-137.5 18h-9l-6 -1v153l-298 -239l298 -240v160l5 1q3 0 10 1t27 2t41 1z" />
    <glyph glyph-name="uniE641" unicode="&#xe641;" horiz-adv-x="1027" 
d="M514 762q-189 0 -332 -123q-137 -117 -172 -292q-9 -50 -9 -100q0 -131 62 -245v136q0 19 6.5 36t18.5 32q-2 21 -2 41q0 116 57 215t156 157t215 59q69 -1 134.5 -23t118 -61.5t92.5 -92.5t61.5 -118.5t21.5 -135.5q0 -22 -3 -45q11 -14 16.5 -30.5t5.5 -33.5v-143
q66 117 66 252q0 60 -13.5 117.5t-39 108.5t-60.5 95.5t-79.5 80t-95 61t-108.5 39t-117 13.5zM95 160q-2 -4 -3 -8v-6q-1 -4 -1 -8v-131v-61q0 -45 46.5 -76.5t111.5 -31.5h67v407h-67q-56 0 -99.5 -24t-54.5 -61zM932 -54v63v129q0 7 -1 14q-3 15 -12.5 29.5t-24 26
t-33 20t-41 13t-46.5 4.5h-66v-407h66q43 0 79.5 14.5t57.5 39t21 54.5z" />
    <glyph glyph-name="uniE644" unicode="&#xe644;" 
d="M336 530zM723 731zM506 -133h-2q-5 0 -8.5 2t-6.5 6l-460 649q-3 4 -3 10v1v3q0 2 1 4l80 200q5 11 17 11h785q12 0 17 -11l80 -200q4 -11 -4 -20q-3 -2 -6.5 -3.5t-7 -1t-6.5 1.5l-7 3q-1 1 -1.5 1t-1.5 1l-243 165l-213 -169q-2 -1 -5 -2t-6 -1h-1q-6 0 -11 4l-202 168
l-221 -161l435 -614l363 485h1l19 26q5 8 13 17t28.5 24t41.5 19q7 2 13.5 -2t8 -11.5t-2.5 -13.5t-12 -8q-15 -3 -31 -15t-21.5 -19t-7.5 -11l-1 -1l-20 -26l-377 -504l-2 -2q-2 -2 -4 -3t-4 -1.5t-4 -0.5zM313 717l192 -160l201 160h-393zM136 717l-55 -137l189 137h-134z
M752 717l200 -136l-55 136h-145z" />
    <glyph glyph-name="uniE646" unicode="&#xe646;" 
d="M165 -75q-9 0 -17 2.5t-13.5 6t-8 6t-3.5 5.5q-16 23 -1 64q3 8 7 16.5t5.5 11.5t3.5 5l280 458v9q0 25 5 49t14.5 46.5t23 43t31.5 37.5q73 73 176.5 73t177 -73t73.5 -177t-73 -177q-24 -23 -52.5 -39.5t-60 -25t-64.5 -8.5q-15 0 -30 1.5t-29.5 5t-28.5 9.5
q-51 18 -89 57q-13 13 -25 28q-7 10 -13.5 21t-11.5 23q-3 6 -0.5 13t9 10t13.5 0.5t10 -8.5q5 -10 10.5 -19.5t11.5 -18.5q10 -12 21 -24q33 -33 77 -49q36 -14 75 -14q89 0 151.5 63t62.5 152t-62.5 152t-151.5 63q-20 0 -39 -3.5t-36 -10t-33.5 -16t-30 -21.5
t-25.5 -25.5t-21.5 -30t-16 -33.5t-10 -36t-3.5 -39v-1l-2 -18l-284 -466q-10 -16 -15 -34t-1 -24q13 -14 54 10l330 232q31 23 76 25q8 0 13 -5t5.5 -12t-4.5 -12.5t-12 -6.5q-10 0 -19.5 -2t-15.5 -4l-12 -6q-6 -2 -7 -4l-3 -2h-1l-331 -233h-1q-4 -3 -8.5 -5.5t-8.5 -4.5
t-8 -3.5t-8 -2.5t-7.5 -2t-6.5 -1.5t-6 -0.5h-6zM122 -145q-5 0 -10 3t-7 9q-5 12 -3.5 25.5t3.5 22.5t7.5 18t8 12.5t4.5 5.5l26 -24q-21 -24 -12 -48q2 -7 -1 -14t-10 -9z" />
    <glyph glyph-name="uniE64A" unicode="&#xe64a;" 
d="M881 128q-6 48 -24 90.5t-49 79t-73 62.5t-99 41t-124 15q-83 0 -150.5 -22.5t-112 -62.5t-71.5 -91.5t-35 -111.5q-2 -12 -6 -37q-4 -27 -5.5 -41t-3 -38.5t2 -37t10 -32t20.5 -30t33.5 -24.5t49.5 -21t68 -14t88.5 -10t111.5 -3t111.5 3t88.5 10t67.5 14t49.5 21
t34 24.5t20.5 30t10 32t2 37t-3 38t-5.5 41.5q-1 3 -1 4.5t-0.5 4.5t-1 5t-1 4.5t-0.5 4.5t-1 4v6q-1 2 -1 4zM512 480q66 0 113 47t47 113t-47 113t-113 47t-113 -47t-47 -113t47 -113t113 -47z" />
    <glyph glyph-name="uniE64C" unicode="&#xe64c;" 
d="M823 194v404q0 29 -14.5 54.5t-39 40t-51.5 14.5h-403q-32 0 -58 -14.5t-41 -40t-15 -54.5v-404q0 -39 20 -84.5t49 -71.5l160 -139q34 -31 82 -31q11 0 21.5 2t20.5 5.5t19 8.5t17 12l161 143q45 38 65 106q2 5 2 9q5 22 5 40zM766 598v-395l-98 55v392h46
q21 0 36.5 -15.5t15.5 -36.5zM416 650h194v-383l-98 -75l-96 58v400zM311 650h48v-396l-101 -54v398q0 21 15.5 36.5t37.5 15.5zM714 83l-134 -112q-30 24 -69 24q-42 0 -74 -28l-128 113q-23 21 -39 61l115 61l112 -69q16 -10 32 1l101 77q2 0 3 -0.5t3 -0.5l119 -66
q-5 -12 -11.5 -23.5t-14 -21t-15.5 -16.5z" />
    <glyph glyph-name="uniE64E" unicode="&#xe64e;" 
d="M921 288l-314 -279v170h-306v219h306v169zM218 97h306v-89h-397v560h397v-89h-306v-382z" />
    <glyph glyph-name="uniE64F" unicode="&#xe64f;" 
d="M943 311l-112 207q-15 37 -42 65.5t-64.5 44.5t-78.5 16h-271q-67 0 -119.5 -40t-71.5 -103l-103 -190q-13 -26 -16 -54t5 -56q17 -57 70 -85q20 -11 44 -15q18 -63 70.5 -103.5t120.5 -40.5h271q67 0 120 40.5t71 103.5q26 3 47 15q53 28 70 85t-11 110zM162 157
q-36 19 -47.5 57.5t7.5 74.5l54 99v-232v-2v-3l-4 2l-6 2zM798 156q0 -21 -5.5 -40.5t-15 -36.5t-23.5 -31t-31 -23.5t-36.5 -15t-40.5 -5.5h-271q-63 0 -107.5 44.5t-44.5 107.5v289q0 63 44.5 107.5t107.5 44.5h271q63 0 107.5 -44.5t44.5 -107.5v-289zM909.5 214.5
q-11.5 -38.5 -47.5 -57.5q-8 -4 -17 -7v3v3v238l57 -105q19 -36 7.5 -74.5zM315 410q-13 0 -24 -6t-17 -17t-6 -24q0 -19 13.5 -32.5t33 -13.5t33 13.5t13.5 33t-13.5 33t-32.5 13.5zM706 410q-7 0 -14.5 -2.5t-13 -6.5t-10 -10t-7 -13t-2.5 -15q0 -19 14 -32.5t33.5 -13.5
t33 13.5t13.5 32.5q0 13 -6.5 24t-17 17t-23.5 6zM616 119q-32 0 -55 23t-23 55q0 4 -1 8q12 7 19 19t7 26.5t-7 26.5t-19 19t-27 7q-21 0 -36.5 -15.5t-15.5 -37.5q0 -30 26 -45q-1 -4 -1 -8q0 -32 -23 -55t-55 -23q-6 0 -11.5 -3t-8.5 -8.5t-3 -11.5q0 -10 7 -16.5
t16 -6.5q33 0 61 15.5t44 42.5q17 -27 45 -42.5t61 -15.5q3 0 6 0.5t5.5 2t4.5 4t3.5 5t2.5 5.5t1 6q0 10 -7 16.5t-16 6.5z" />
    <glyph glyph-name="uniE650" unicode="&#xe650;" 
d="M689 53q-48 0 -83 -33l-291 222q15 26 15 57q0 6 -1 12l-2 12q-1 6 -2.5 11.5t-4.5 10.5l-5 11l296 226q33 -30 78 -30q49 0 84 35t35 84.5t-35 84.5t-84 35q-32 0 -59.5 -16t-43.5 -43.5t-16 -60.5q0 -11 2 -21.5t6 -20.5t9 -19l-294 -225q-35 33 -82 33q-50 0 -85 -35
t-35 -84.5t35 -84t85 -34.5q47 0 82 33l291 -223q-7 -13 -10.5 -27t-3.5 -29q0 -49 35 -84t84 -35q33 0 60 16t43 43.5t16 59.5q0 49 -35 84t-84 35zM689 754q34 0 58.5 -24.5t24.5 -58.5t-24.5 -58t-58.5 -24t-58 24t-24 58t24 58.5t58 24.5zM211 216q-35 0 -59 24.5
t-24 58.5t24 58t58.5 24t58.5 -24t24 -58q0 -17 -6.5 -32t-17.5 -26.5t-26.5 -18t-31.5 -6.5zM689 -148q-34 0 -58 24t-24 58t24 58t58 24t58.5 -24t24.5 -58t-24.5 -58t-58.5 -24z" />
    <glyph glyph-name="uniE651" unicode="&#xe651;" 
d="M900 345q-4 1 -7.5 3.5t-7.5 7.5q-1 3 -2.5 6.5t-3 8t-2.5 10t-2 12.5q-5 44 -29 64.5t-74 29.5q-53 11 -93 41q-10 8 -19.5 15.5t-18 14.5t-16 14t-13.5 14q-13 12 -23 16t-17 1q-13 -8 -14 -25v-153q0 -63 -0.5 -136t-0.5 -138v-178q1 -27 -9 -60q-5 -17 -14.5 -32.5
t-22.5 -29.5q-5 -5 -10 -9.5t-10.5 -9t-11.5 -9t-12.5 -8t-14 -7.5t-14.5 -7q-45 -21 -113 -24q-35 -2 -66 4t-59 19q-55 27 -85.5 68t-30 89.5t44 91.5t93.5 59.5t97 18.5t83.5 -6t54.5 -15v317q0 133 1 299q0 16 4 29.5t13 23.5q18 21 47 24q12 2 22 -0.5t18 -9t16 -15.5
t16 -20q4 -6 8.5 -12t9.5 -12.5t10.5 -13.5t11.5 -14q24 -30 65 -58q35 -25 61 -37q6 -2 11 -4l10 -4q5 -2 10 -4.5t9.5 -4t8.5 -3.5q12 -5 23 -11l22 -12q22 -14 49 -44q27 -29 33 -61q3 -15 3 -29.5t-2 -27.5q-6 -25 -17.5 -41.5t-19.5 -15.5z" />
    <glyph glyph-name="uniE653" unicode="&#xe653;" 
d="M510 -184q-99 0 -190 39q-87 37 -154.5 104.5t-104.5 154.5q-39 91 -39 190.5t39 189.5q37 88 104.5 155.5t154.5 104.5q46 19 93.5 29t97 10t97 -10t92.5 -29q88 -37 155 -104q34 -34 60.5 -73t44.5 -83q38 -90 38 -190q0 -82 -26 -159q-26 -75 -74 -137q-1 -2 -3 -4
l-6 -8q-4 -5 -8 -9q-5 -5 -13 -5.5t-13.5 4.5t-6 13t4.5 14q8 7 15 17q44 58 68 127q25 71 25 147q0 92 -36 176q-17 40 -41 76t-55 67t-67 55.5t-76 41.5q-84 35 -176 35q-45 0 -89 -9t-86 -26q-81 -35 -143 -97q-31 -31 -55.5 -67t-41.5 -76q-35 -84 -35 -175.5t35 -175.5
q17 -40 41.5 -76t55.5 -67q62 -62 143 -97q84 -35 175 -35q37 0 73 6t71 17.5t67 28.5q5 3 11.5 6.5t23.5 11t33.5 13.5t38.5 11.5t41 7.5q8 0 14 -5t6.5 -12.5t-4.5 -13.5t-13 -7q-28 -2 -62.5 -14t-48.5 -19t-21 -12h-1q-13 -7 -26.5 -13t-27.5 -11.5t-28 -10t-28.5 -8
t-29 -6t-29.5 -4.5t-30 -3t-30 -1zM333 377q-22 0 -37.5 15.5t-15.5 37.5t15.5 37.5t37.5 15.5t37.5 -15.5t15.5 -37.5q0 -14 -7 -26t-19 -19.5t-27 -7.5zM333 446q-3 0 -6 -1.5t-5 -3.5t-3 -4.5t-1 -6.5t2 -7.5t5.5 -5.5t7.5 -2q7 0 11.5 4.5t4.5 10.5q0 5 -2 8.5t-6 5.5
t-8 2zM675 377q-11 0 -20.5 4.5t-17 11.5t-11.5 17t-4 20q0 22 15.5 37.5t37.5 15.5t37.5 -15.5t15.5 -37.5t-15.5 -37.5t-37.5 -15.5zM675 446q-4 0 -7.5 -2t-5.5 -5.5t-2 -8.5q0 -6 4.5 -10.5t10.5 -4.5t11 4.5t5 11t-5 11t-11 4.5zM507 2q-70 0 -132.5 29t-106.5 83
q-2 2 -3 5t-1.5 5.5t0.5 5.5t2.5 5.5t3.5 4.5q6 5 14 4.5t13 -6.5q39 -47 94 -73t116 -26q65 0 123 29q55 28 93 78q4 4 8.5 6t9.5 1t9 -4t6 -7.5t1 -9.5t-4 -9q-43 -56 -107 -88q-65 -33 -139 -33z" />
    <glyph glyph-name="uniE654" unicode="&#xe654;" 
d="M892 572h-132q28 19 44 36q10 8 17 18t12.5 20t8.5 20.5t4 21.5q3 42 -25 75q-4 5 -8 9t-9 7.5t-10 6.5t-10 5.5t-10.5 5t-11.5 4t-12 2t-12 1.5q-54 3 -106 -36q-40 -24 -89 -84q-24 -28 -37 -72.5t-14 -65.5t-1 -36v-257h-388v244q0 9 4 16t11.5 11t15.5 4h213
q5 0 10 2.5t8 6.5t4 10q1 8 -3.5 14.5t-11.5 9.5q-5 1 -13.5 5.5t-34.5 22t-55 41.5q-24 21 -26 47q-1 8 0.5 15.5t5 15t8.5 13.5q13 16 32 23.5t45.5 2.5t51.5 -25h1q1 -1 2 -1q10 -7 34 -30q4 -4 9.5 -9t15.5 -13t22.5 -14.5t24.5 -9.5q9 -2 16.5 3t9.5 14t-3 16.5
t-14 9.5q-22 5 -49 34h-1q-29 28 -42 36q-35 27 -72.5 33t-67 -6t-49.5 -36q-27 -34 -24 -75q3 -44 42 -77q12 -10 23 -19t21 -16h-133q-12 0 -23.5 -4t-20.5 -10.5t-16 -16t-11 -21t-4 -23.5v-621q0 -30 22 -52t53 -22h758q21 0 38 10t27 27t10 37v621q0 31 -22 53t-53 22z
M535 511q-1 23 4 54q10 59 38 91q20 25 40 43.5t27 23.5t11 7q1 1 3 2q26 20 52 25.5t45.5 -1t31.5 -21.5q10 -12 14 -26.5t-2.5 -33t-24.5 -36.5h-1q-4 -4 -12 -11t-34.5 -25.5t-57.5 -33.5q-15 -8 -11 -25t21 -17l213 1q9 0 16 -4t11 -11t4 -16v-244h-388v257v1zM103 -124
v333h388v-363h-357q-13 0 -22 9t-9 21zM892 -154h-357v363h388v-333q0 -12 -9 -21t-22 -9z" />
    <glyph glyph-name="uniE659" unicode="&#xe659;" 
d="M219 476h555v-13v-414q0 -71 -72 -71h-34v-37v-37v-36v-36q0 -9 -3 -17t-8.5 -15t-12 -12t-15 -8t-17.5 -4q-24 -1 -42.5 14t-18.5 38q-1 13 -1 148h-106v-10v-10v-9v-9v-10v-10q0 -78 -1 -87q-1 -21 -15.5 -36.5t-34.5 -17.5q-15 -2 -28 2.5t-23 14.5t-14 23
q-3 10 -3 19v123q0 1 1 19h-40q-30 0 -48 18t-19 48v421v11zM774 517h-555q4 68 40 116t101 82q-2 3 -7.5 11t-9.5 14l-8 12l-8 12q-6 9 -9 14l-2 2q-8 12 0 18q3 1 5 1.5t3.5 0.5t3 -2t2.5 -2.5t2 -3.5l2 -3q8 -11 31 -47q10 -14 14.5 -15.5t20.5 3.5q105 30 207 -5l8 -2
q5 8 13 20t15.5 23t13.5 20l2 2l3 6q7 10 16 4q2 -2 3 -5t0.5 -5.5t-2.5 -4.5q-8 -12 -37 -55q-1 -2 -2.5 -4t-3 -5t-2.5 -4q64 -34 100.5 -82t39.5 -116zM645 625q0 12 -8.5 20.5t-20.5 9.5q-8 0 -15 -4t-11 -11t-4 -15q0 -6 2.5 -11.5t6 -9.5t9 -6t11.5 -2q5 0 9.5 1
t8.5 4t6.5 6.5t4 8t1.5 9.5zM407 625q0 6 -2.5 11.5t-6.5 9.5t-9.5 6.5t-11.5 2.5q-12 -1 -20.5 -10t-8.5 -20q0 -13 9 -21.5t21.5 -8t20.5 9t8 20.5zM932 290v-124q0 -27 -16.5 -45t-42.5 -18q-12 0 -23 5t-19 13t-12.5 19.5t-4.5 25.5v251q0 23 15 39.5t37 19.5
q24 2 42 -11t23 -36q1 -5 1 -18v-121zM179 290v-130q0 -13 -6 -24.5t-16 -19.5t-22 -11q-19 -5 -37.5 2.5t-27.5 23.5t-9 31q-1 106 0 255q0 25 17 42t42 17t42 -17t17 -42v-127v0z" />
    <glyph glyph-name="uniE65F" unicode="&#xe65f;" 
d="M433 764h-338q-18 0 -30 -12.5t-12 -29.5v-339q0 -4 0.5 -8t2.5 -8t4 -7.5t5 -6t6.5 -5t7 -4t8 -2.5t8.5 -1h338q12 0 21.5 5.5t15.5 15.5t6 21v339q0 11 -6 21t-15.5 15.5t-21.5 5.5zM439 383q-2 -4 -6 -5h-338q-6 0 -6 5v339q0 2 2 3.5t4 1.5h338q6 0 6 -5v-339z
M323 638h-118q-7 0 -13 -3.5t-9.5 -9.5t-3.5 -14v-117q0 -11 7.5 -19t18.5 -8h118q11 0 19 8t8 19v117q0 11 -8 19t-19 8zM313 504h-98v97h98v-97zM323 136h-118q-3 0 -6.5 -1t-6.5 -2.5t-5.5 -4t-4 -5.5t-2.5 -6.5t-1 -6.5v-118q0 -11 7.5 -19t18.5 -8h118q11 0 19 8t8 19
v118q0 5 -2.5 10t-6 8.5t-8.5 5.5t-10 2zM313 2h-98v98h98v-98zM699 467h118q7 0 13 3.5t9.5 10t3.5 13.5v117q0 11 -7.5 19t-18.5 8h-118q-5 0 -10 -2t-8.5 -5.5t-6 -8.5t-2.5 -11v-117q0 -7 4 -13.5t10 -10t13 -3.5zM709 601h98v-97h-98v97zM433 266h-338q-12 0 -21.5 -6
t-15 -15.5t-5.5 -21.5v-338q0 -18 12 -30t30 -12h338q18 0 30.5 12t12.5 30v338q0 12 -6 21.5t-15.5 15.5t-21.5 6zM439 -115q0 -2 -1.5 -4t-4.5 -2h-338q-6 0 -6 6v338q0 3 2 4.5t4 1.5h338q6 0 6 -6v-338zM591 264q-18 0 -30 -12.5t-12 -29.5v-195q0 -7 5 -12.5t13 -5.5
t13 5.5t5 12.5v195q0 2 2 3.5t4 1.5h205q7 0 12.5 5.5t5.5 13t-5.5 13t-12.5 5.5h-205zM589 341h338q18 0 30 12.5t12 29.5v339q0 17 -12 29.5t-30 12.5h-338q-18 0 -30.5 -12.5t-12.5 -29.5v-339q0 -11 6 -21t15.5 -15.5t21.5 -5.5zM583 722q0 2 1.5 3.5t4.5 1.5h338
q2 0 4 -1.5t2 -3.5v-339q-2 -4 -6 -5h-338q-3 0 -4.5 1.5t-1.5 3.5v339zM970 246q0 7 -5.5 12.5t-13.5 5.5h-67q-8 0 -13.5 -5.5t-5.5 -13t5.5 -13t13.5 -5.5h49v-71h-153q-8 0 -13.5 -5t-5.5 -13t5.5 -13t13.5 -5h171q4 0 7.5 1t6 3.5t4 6t1.5 7.5v0v108zM630 -121h-45v51
q0 8 -5 13.5t-13 5.5q-5 0 -9.5 -2.5t-6.5 -7t-2 -9.5v-70q0 -7 5 -12.5t13 -5.5h63q4 0 7.5 1.5t6 4t4 6t1.5 6.5q0 8 -5.5 13.5t-13.5 5.5zM834 21.5q0 7.5 -5.5 13t-12.5 5.5h-117q-5 0 -9 -2.5t-6.5 -6.5t-2.5 -9v-163q0 -8 5.5 -13.5t13 -5.5t13 5.5t5.5 13.5v144h98
q7 0 12.5 5.5t5.5 13zM951 89q-4 0 -7.5 -1.5t-5.5 -4t-3.5 -6t-1.5 -7.5v-194h-167q-4 0 -7.5 -1.5t-6 -4t-3.5 -6t-1 -7.5q0 -7 5 -12.5t13 -5.5h185q4 0 7.5 1.5t6 4t3.5 6t1 6.5v213q0 5 -2 9.5t-6.5 7t-9.5 2.5zM656 188q-4 0 -7.5 -1.5t-6 -3.5t-3.5 -5.5t-1 -7.5v-60
q0 -8 5 -13t13 -5t13 5t5 13v60q0 8 -5 13t-13 5z" />
    <glyph glyph-name="uniE664" unicode="&#xe664;" 
d="M838 707h-648q-20 0 -35.5 -14t-15.5 -42l-1 -726q0 -58 45 -58q11 0 22 3t21 8l235 105q6 3 15 6v41q-15 -3 -28 -9l-230 -108q-3 -2 -4.5 -2.5t-5 -2t-5.5 -1.5t-5.5 -0.5t-5.5 0.5q-1 0 -3 1t-3.5 2.5t-3.5 3t-3 4.5l-2 4q-1 3 -1.5 6.5t-0.5 7.5v701q0 12 7.5 22.5
t18.5 10.5h622q14 0 20.5 -9t6.5 -22v-707q-1 -21 -11 -24q-1 -1 -4 -0.5t-4 1t-4 1.5t-4 1l-259 111q-7 3 -15 5v-40l1 -1q2 0 3 -1l255 -113q10 -4 25 -4q22 0 37.5 16t15.5 48v726q0 19 -15.5 34t-32.5 15zM302 380l139 23l61 130l64 -129l140 -19l-100 -102l25 -143
l-125 66l-124 -69l22 143zM506 164l165 -76l-26 182l130 137l-185 31l-88 167l-85 -169l-177 -35l125 -134l-21 -185z" />
    <glyph glyph-name="uniE666" unicode="&#xe666;" 
d="M512 -212q-139 0 -257 68.5t-186.5 186.5t-68.5 257t68.5 257t186.5 186.5t257 68.5t257 -68.5t186.5 -186.5t68.5 -257t-68.5 -257t-186.5 -186.5t-257 -68.5zM525 556h-26v-205h26v205zM576 548v-27q29 -8 54.5 -23.5t46 -36t35 -46t22.5 -55t8 -60.5
q0 -95 -67.5 -162.5t-162.5 -67.5t-162.5 67.5t-67.5 162.5q0 78 46.5 139t119.5 82v27q-84 -22 -138 -91t-54 -157q0 -106 75 -181t181 -75t181 75t75 181q0 88 -54 157t-138 91z" />
    <glyph glyph-name="uniE667" unicode="&#xe667;" 
d="M496 626q3 9 7 13.5t7.5 4.5t7.5 -4.5t7 -13.5l67 -206q6 -18 24 -31.5t37 -13.5h216q19 0 21.5 -7.5t-12.5 -19.5l-175 -127q-16 -11 -22.5 -32t-0.5 -39l66 -206q4 -12 2.5 -18.5t-8.5 -6t-17 7.5l-175 128q-10 7 -23.5 9.5t-27.5 0t-24 -9.5l-175 -127q-5 -4 -9.5 -6
t-7.5 -2t-5 1.5t-3 4.5t-0.5 7.5t2.5 10.5l67 206q5 18 -1.5 39t-22.5 33l-175 126q-10 8 -12.5 14t3.5 9.5t18 3.5h216q20 0 37.5 13.5t23.5 31.5z" />
    <glyph glyph-name="uniE66C" unicode="&#xe66c;" 
d="M898 52q-27 21 -86 52t-104 52l-46 21l-113 -209l-17 50l31 63l-62 63l-62 -63l31 -63l-20 -51l-111 210q-175 -78 -236 -125q-27 -21 -48.5 -70t-30 -82.5t-8.5 -38.5h971q0 5 -2 14.5t-9 36t-16 49.5t-25.5 49t-36.5 42zM507 195q50 0 96.5 31.5t76 77t47 95t17.5 88.5
v37q0 14 -2.5 40t-6.5 42.5t-12 40.5t-19.5 39.5t-30 33t-41.5 27.5t-55 17t-70.5 7t-70.5 -7t-55 -17t-41.5 -27.5t-30 -33t-19.5 -39.5t-12 -40.5t-6.5 -42.5t-2.5 -40v-37q0 -31 10.5 -69.5t32 -77.5t49.5 -71.5t66.5 -53t79.5 -20.5v0zM507 195z" />
    <glyph glyph-name="uniE66E" unicode="&#xe66e;" 
d="M913 400q-9 10 -23 14q-9 3 -20 3h-230q-5 -1 -11.5 4t-7.5 10l-66 239q-4 13 -10 22q-3 4 -6.5 7.5t-11 7t-15.5 3.5q-12 0 -20 -5.5t-13 -12.5q-6 -9 -10 -22l-66 -239q-1 -5 -7.5 -10t-11.5 -4h-230q-4 0 -6.5 -0.5t-6 -1t-7 -1.5t-7.5 -2q-3 -2 -5.5 -3t-5.5 -3
l-5 -6q-9 -11 -8 -24q0 -15 10 -28q7 -7 16 -14l186 -122q3 -1 6 -7.5t3 -11.5l-1 -4l-72 -236q-4 -12 -4 -22q1 -14 8 -25q5 -7 14 -11.5t17 -4.5h6l4 2q3 0 5 0.5t3.5 1.5t3.5 2l3 2q1 0 3 1.5t3 2t3 2t3 2.5l181 154q3 3 9 3t10 -3l191 -155q0 -1 3 -3t3.5 -2.5t3.5 -2
t4.5 -2.5t4 -2t5 -1.5t5.5 -1t6 -0.5h2q3 0 7.5 1t8 3t7.5 5t6.5 6.5t4 7t1.5 6.5l2 6v6v4q0 2 -0.5 4t-1 3.5t-0.5 3.5l-2 4v3l-81 238q0 1 -0.5 2t-0.5 2q0 3 1.5 7t3 7t3.5 3l185 122q9 7 16 14q10 13 10 28q0 6 -2 12.5t-6 11.5z" />
    <glyph glyph-name="uniE675" unicode="&#xe675;" 
d="M898 64q-27 21 -86 52t-104 52l-46 21l-113 -209l-17 50l31 63l-62 63l-62 -63l31 -63l-20 -51l-111 210q-175 -78 -236 -125q-17 -14 -32 -39t-24.5 -48.5t-17.5 -50.5t-10 -37t-3 -16h971q0 5 -2 14.5t-9 36t-16 49.5t-25.5 49t-36.5 42zM507 207q26 0 51 8.5t46 23
t40.5 34.5t34.5 42.5t27.5 47t20.5 48.5t12.5 46.5t4.5 41.5v37q0 14 -2.5 40t-6.5 42.5t-12 40.5t-19.5 39.5t-30 33t-41.5 27.5t-55 17t-70.5 7t-70.5 -7t-55 -17t-41.5 -27.5t-30 -33t-19.5 -39.5t-12 -40.5t-6.5 -42.5t-2.5 -40v-37q0 -39 17.5 -88.5t47.5 -95.5t76 -77
t97 -31zM507 207z" />
    <glyph glyph-name="uniE676" unicode="&#xe676;" 
d="M512 748q-73 0 -141.5 -22.5t-123.5 -64t-96.5 -96.5t-64 -123.5t-22.5 -141.5t22.5 -141t64 -123t96.5 -96.5t123.5 -64t141.5 -22.5q91 0 173.5 35.5t142.5 95t95.5 142.5t35.5 174q0 73 -22.5 141.5t-64 123.5t-96.5 96.5t-123 64t-141 22.5zM512 -92
q-107 0 -197 52.5t-142.5 143t-52.5 197t52.5 196.5t142.5 142.5t196.5 52.5t197 -52.5t142.5 -142.5t52 -197q0 -35 -6 -70t-18 -66.5t-29 -61t-38.5 -55t-47 -47t-55 -38.5t-61 -29t-66.5 -18.5t-70 -6.5zM762 300h-236v237q0 6 -7 10.5t-16 4.5h-11q-9 0 -16 -4.5
t-7 -10.5v-277q0 -6 6 -11q5 -5 10 -5h7h11h259q15 0 15 23v11q0 9 -4.5 15.5t-10.5 6.5z" />
    <glyph glyph-name="uniE67C" unicode="&#xe67c;" 
d="M599 -19l12 193l373 -184v112l-366 343v215q0 47 -31.5 95t-71.5 48q-27 0 -51.5 -24t-38 -57t-13.5 -62v-215l-367 -343v-112l367 184l15 -209q0 -5 1 -13v-2l-66 -60v-67l154 51l2 1l148 -52v67l-69 62z" />
    <glyph glyph-name="uniE690" unicode="&#xe690;" horiz-adv-x="1064" 
d="M-49 -72zM1041 -72zM124 -27zM807 197q0 -23 16 -39.5t38 -16.5q15 0 27.5 7.5t20 20.5t7.5 28v216q0 23 -16 39.5t-39 16.5q-22 0 -38 -16.5t-16 -39.5v-216zM611 596q0 5 2.5 10t6 8.5t8.5 5.5t10 2q11 0 19 -7.5t8 -18.5t-8 -19t-19 -8t-19 8t-8 19zM404 596
q0 7 3.5 13t9.5 9.5t13 3.5q11 0 19 -7.5t8 -18.5t-8 -19t-19 -8q-7 0 -13 3.5t-9.5 10t-3.5 13.5zM291 72q0 -12 6 -22t15.5 -15.5t21.5 -5.5h48v-120q0 -23 16 -39.5t39 -16.5q22 0 38.5 16.5t16.5 39.5v120h84v-120q0 -23 15.5 -39.5t38.5 -16.5t39 16.5t16 39.5v120h48
q18 0 30.5 12.5t12.5 30.5v395h-485v-395zM775 502q-5 55 -39 100t-88 70l44 65q2 3 2 6.5t-3 4.5q-6 3 -11 -3l-47 -67q-51 19 -100 19q-26 0 -51.5 -5t-50.5 -14l-45 67q-7 7 -11 3q-7 -4 -2 -11l45 -65q-55 -26 -89 -70.5t-39 -99.5h485zM149 197q0 -23 16 -39.5
t39 -16.5q11 0 21 4.5t17.5 12t12 18t4.5 21.5v216q0 23 -16.5 39.5t-38.5 16.5q-23 0 -39 -16.5t-16 -39.5v-216zM941 -27z" />
    <glyph glyph-name="uniE691" unicode="&#xe691;" horiz-adv-x="1025" 
d="M648 711l49 85q4 7 -3 12l-4 2q-7 4 -11 -3l-50 -86q-56 28 -117 28t-117 -28l-50 86q-4 7 -11 3l-4 -2q-8 -5 -3 -12l49 -86q-22 -13 -41 -30.5t-35 -38.5t-28 -44.5t-19.5 -50t-10.5 -53.5h541q-5 46 -23 87.5t-47 74.5t-65 56zM382 599q-5 0 -9.5 2t-7.5 5t-5 7.5
t-2 8.5q0 7 3 12.5t8.5 8.5t12.5 3q9 0 16 -7t7 -16.5t-7 -16.5t-16 -7zM639 599q-5 0 -9.5 2t-7.5 5t-5 7.5t-2 8.5q0 10 7 17t16.5 7t16.5 -7t7 -16.5t-7 -16.5t-16 -7zM901 479h-32q-12 0 -24.5 -7.5t-20 -19.5t-7.5 -23v-289q0 -11 8 -22t20 -17t24 -6h32q18 0 31 13
t13 31v296q0 30 -27 41q-9 3 -17 3zM240 269q0 -64 25.5 -119.5t70.5 -93.5v-236q0 -17 16 -24.5t37 -7.5h32q18 0 31 13t13 31v167q9 -1 17 -1.5t16 -0.5h32q14 0 29 2v-167q0 -9 3.5 -17t9.5 -14t14 -9.5t17 -3.5h32q22 0 37.5 7.5t15.5 24.5v224q0 4 -1 9
q31 25 52.5 58.5t33.5 73.5t12 84v192h-545v-192zM156 479h-32q-19 0 -31.5 -12.5t-12.5 -31.5v-296q0 -18 12.5 -31t31.5 -13h32q19 0 35.5 14t16.5 31v289q0 9 -5 18t-12.5 16t-16.5 11.5t-18 4.5z" />
    <glyph glyph-name="uniE697" unicode="&#xe697;" 
d="M615 -170h-23h-37h-498v24q1 0 -0.5 7t2.5 20t9 28t19 32.5t33 32.5t51 28t72 20q6 1 16.5 2.5t37 7.5t47 12.5t39 17t21.5 22.5q1 0 1.5 2.5t1.5 14.5t-1 35q-4 36 -17.5 68t-27 50t-33 40.5t-25.5 30.5q-8 11 -14 24t-8.5 23t-4.5 19t-2 14l-1 5q0 11 13 22q9 8 5 29
q-3 14 -4.5 32t-1.5 36.5t1 37t4 32.5q2 45 43 83q7 5 12.5 10.5t9.5 11.5q3 5 4 8q1 5 -1 10l-4 10q-2 5 -1 10q1 6 9 8t21 3q22 1 35.5 1.5t35.5 -1.5q49 -3 91.5 -12.5t67.5 -20.5t43 -21.5t25 -16.5l7 -7q20 -23 29 -57l2 -10q1 -5 1 -9q7 -39 4 -97q0 -7 -1 -15t-2 -15
t-2 -15q-2 -13 5 -21q11 -13 12 -16l1 -10q-2 -46 -29 -85q-7 -8 -26 -30.5t-33 -40.5t-27.5 -50t-16.5 -68q-2 -23 -1.5 -34.5t1.5 -14.5l1 -3q5 -19 45 -34.5t78 -21.5l38 -6q148 -27 180 -125q6 -19 6 -43v-24h-131h21h-18h-37h-173zM958 220h-113v113q0 2 -1 4v4
q-1 2 -2 3l-4 4q-1 1 -3 2h-4q-2 1 -4 1q-5 0 -9.5 -2.5t-7 -6.5t-2.5 -9v-113h-112q-8 0 -13.5 -5.5t-5.5 -12.5q0 -5 2.5 -9.5t7 -7t9.5 -2.5h112v-112q0 -8 5.5 -13.5t13 -5.5t13 5.5t5.5 13.5v112h113q8 0 13 5.5t5 13t-5 13t-13 5.5z" />
    <glyph glyph-name="uniE69B" unicode="&#xe69b;" 
d="M717 736h-409q-13 0 -25.5 -5t-21.5 -14t-14 -21.5t-5 -25.5v-737q0 -28 19.5 -47.5t46.5 -19.5h409q28 0 47.5 19.5t19.5 47.5v737q0 27 -19.5 46.5t-47.5 19.5zM733 81h-440v481h440v-481zM308 685h409q3 0 6 -1t5 -3t3.5 -5t1.5 -6v-57h-440v57q3 13 15 15zM717 -82
h-409q-6 0 -10.5 4.5t-4.5 10.5v97h440v-97q-4 -13 -16 -15zM513 16q-7 0 -12.5 -1.5t-11 -4.5t-9.5 -7.5t-7 -9.5t-4.5 -11t-1.5 -12q0 -19 13.5 -32.5t32.5 -13.5t32.5 13.5t13.5 32.5q0 30 -28 42q-9 4 -18 4zM513 -35q-5 0 -5 5t5 5q2 0 3.5 -1.5t1.5 -3.5q-2 -4 -5 -5z
" />
    <glyph glyph-name="uniE6A1" unicode="&#xe6a1;" 
d="M578 772h-135q-111 0 -205.5 -55t-149.5 -149t-55 -206v-490q0 -4 2.5 -8t6 -6t8.5 -2h146q28 0 47.5 19.5t19.5 47.5v232q0 18 -9 33.5t-24.5 24.5t-33.5 9h-131v140q0 103 50.5 190t137.5 137.5t190 50.5h135q102 0 189.5 -50.5t138 -137.5t50.5 -190v-140h-139
q-18 0 -33.5 -9t-24.5 -24.5t-9 -33.5v-232q0 -18 9 -33.5t24.5 -24.5t33.5 -9h155q7 0 11.5 5t4.5 11v490q0 112 -55 206t-149.5 149t-205.5 55z" />
    <glyph glyph-name="uniE6AA" unicode="&#xe6aa;" 
d="M512 748q-91 0 -174 -35.5t-143 -95.5t-95.5 -143t-35.5 -174t35.5 -174t95.5 -143t143 -95.5t174 -35.5t174 35.5t143 95.5t95.5 143t35.5 174t-35.5 174t-95.5 143t-143 95.5t-174 35.5zM695 474q24 0 41 -17t17 -41t-17 -41t-41 -17t-41 17t-17 41t17 41t41 17z
M330 474q24 0 41 -17t17 -41t-17 -41t-41 -17t-41.5 17t-17.5 41t17.5 41t41.5 17zM772 151q-1 -2 -2 -3l-1 -4q-24 -47 -62.5 -82.5t-89 -55.5t-105.5 -20v0q-83 0 -152 43t-105 115l-2 4q-1 1 -1 3q-2 5 -2 10t1 9t3 7q5 9 13.5 14.5t19 5.5t19 -5.5t12.5 -14.5h1
q18 -35 46.5 -62t66.5 -42t79.5 -15t79.5 15t67 42t47 62v0q5 9 13.5 14.5t18.5 5.5q23 0 33 -20q0 -1 1 -3t1.5 -4t0.5 -4v-5v-3q0 -2 -0.5 -3.5t-0.5 -3.5z" />
    <glyph glyph-name="uniE6BD" unicode="&#xe6bd;" 
d="M995 405q0 3 -1 6l-65 207v94q0 9 -6.5 15t-15.5 6h-794q-6 0 -11 -3t-7.5 -8t-2.5 -10v-87q0 -1 -1 -2l-67 -211q-1 -3 -1 -6l-1 -49q0 -14 3 -27.5t8 -25.5t12.5 -23t17 -20.5t20.5 -17.5q-2 -4 -2 -8v-342q0 -9 6.5 -15t15.5 -6h809q6 0 11 2.5t7.5 7.5t2.5 11v293
q0 9 -6 15t-15 6q-4 0 -8 -1.5t-7 -4.5t-5 -7t-2 -8v-272h-766v311q9 -3 17.5 -4t17.5 -1q37 0 68 17.5t49 47.5q12 -19 30 -34t40.5 -23t46.5 -8q36 0 66.5 17.5t49.5 46.5q18 -29 49 -46.5t67 -17.5t67 17.5t49 47.5q19 -30 50 -47.5t67 -17.5q37 0 69 18.5t50 50t18 68.5
v48zM135 690h751v-52h-751v52zM858 263q-39 0 -66.5 27.5t-27.5 66.5q0 9 -6.5 15.5t-15.5 6.5h-1q-6 0 -11 -3t-8 -8t-3 -11q0 -39 -27.5 -66.5t-66.5 -27.5t-67 27.5t-28 66.5q0 9 -6 15.5t-15 6.5q-22 0 -22 -22q0 -39 -27.5 -66.5t-66.5 -27.5q-13 0 -25 3.5t-22.5 9.5
t-19.5 14.5t-15 19t-9.5 23t-3.5 24.5q0 9 -6 15.5t-15 6.5h-2q-4 0 -8 -2t-7 -4.5t-4.5 -6.5t-1.5 -9q0 -39 -27.5 -66.5t-67 -27.5t-67 27.5t-27.5 66.5v45l62 193h764l61 -194v-44q0 -39 -27.5 -66.5t-66.5 -27.5z" />
    <glyph glyph-name="uniE6BE" unicode="&#xe6be;" 
d="M829 -141h-60q-32 54 -64 135h26q4 0 6.5 1t5 2.5t4.5 4t3 5.5t1 6q0 8 -6 13.5t-14 5.5h-41q-22 60 -43.5 131.5t-42.5 151.5q-48 190 -64 292v1h32q3 0 5.5 1.5t4 4t1.5 5.5v37q0 3 -1.5 5t-4 3.5t-5.5 1.5h-2q-2 10 -7.5 18.5t-13.5 14t-18 7.5v52q0 5 -3 8t-7.5 3
t-7.5 -3t-3 -8v-53q-10 -2 -17.5 -7.5t-12.5 -13.5t-6 -18h-3q-4 0 -7.5 -3t-3.5 -7v-37q0 -5 3.5 -8t7.5 -3h30v-1l-1 -3q0 -3 -1 -8t-2.5 -12t-3.5 -16.5t-4 -20.5t-4.5 -24t-5.5 -27t-6.5 -30t-7.5 -32q0 -1 -1 -2v-1q-6 -27 -13 -56.5t-14 -59.5q-21 -80 -42.5 -151.5
t-43.5 -131.5h-47q-5 0 -9.5 -2.5t-7 -7t-2.5 -9.5q0 -8 5.5 -13.5t13.5 -5.5h32q-32 -81 -64 -135h-59q-4 0 -7.5 -1.5t-6 -4t-4 -6t-1.5 -7.5q0 -8 5.5 -14t13.5 -6h616q8 0 14 6t6 14t-6 13.5t-14 5.5zM643 50l-206 63l164 67q20 -65 41 -126q0 -1 1 -4zM474 306
q10 39 23 93l58 -46l-83 -53q1 1 1.5 3t0.5 3zM567 306q14 -53 25 -93l-128 55v1v1l97 61q5 -20 6 -25zM458 247l123 -52l-156 -64q16 53 33 116zM547 387l-45 35q10 45 18 87q13 -59 27 -122zM522 685q20 0 26 -19h-53q7 19 27 19zM482 645h79v-16h-79v16zM399 54
q8 21 15 44l215 -66h-237q4 12 7 22zM664 -6q5 -15 12 -32h-311q7 17 12 32h287zM356 -58q2 -1 4 -1h325q20 -45 40 -82h-409q20 37 40 83z" />
    <glyph glyph-name="uniE6C2" unicode="&#xe6c2;" 
d="M512 637q-77 73 -183 73q-110 0 -187.5 -77.5t-77.5 -187.5q0 -56 25.5 -117.5t62.5 -112.5t88.5 -103.5t94 -88.5t89 -70.5t63 -45t25.5 -16.5q9 6 25 16.5t62.5 45t89 70t94 88.5t88.5 104t62.5 112.5t25.5 117.5q0 110 -77.5 187.5t-187.5 77.5q-35 0 -68 -9
t-61.5 -25t-52.5 -39zM512 637z" />
    <glyph glyph-name="uniE6D1" unicode="&#xe6d1;" 
d="M512 812q-139 0 -257 -68.5t-186.5 -186.5t-68.5 -257t68.5 -257t186.5 -186.5t257 -68.5t257 68.5t186.5 186.5t68.5 257t-68.5 257t-186.5 186.5t-257 68.5zM654 260l-243 -159q-29 -16 -49 -4.5t-20 44.5v318q0 33 20 44.5t49 -4.5l243 -159q28 -17 28 -40t-28 -40z
" />
    <glyph glyph-name="uniE6D5" unicode="&#xe6d5;" 
d="M275 83q0 -23 15.5 -39t37.5 -16h39q-2 -7 -2 -14v-110q0 -22 15 -37t36 -15q13 0 25 6.5t18.5 19t6.5 26.5v110q0 3 -0.5 7t-1.5 7h94q-2 -7 -2 -14v-110q0 -11 4 -20.5t11 -16.5t16 -11t20 -4q21 0 35.5 15t14.5 37v110q0 7 -2 14h39q22 0 37.5 16t15.5 39v382h-472
v-382v0zM191 465q-21 0 -36 -15.5t-15 -36.5v-223q0 -11 4 -20.5t11 -16.5t16 -11t20 -4q21 0 35.5 15t14.5 37v223q0 33 -29 47q-11 5 -21 5v0zM831 465q-21 0 -35.5 -15.5t-14.5 -36.5v-223q0 -22 15 -37t35 -15q14 0 25.5 7t18.5 19t7 26v223q0 33 -29 47q-11 5 -22 5v0z
M627 673l40 62q2 3 1.5 6.5t-3.5 5.5q-2 1 -4.5 1t-4.5 -1t-3 -3l-23 -34l-9 -15l-10 -15q-47 19 -100 19q-52 0 -100 -19l-19 30l-23 34q-5 8 -11.5 3t-2.5 -12l40 -62q-55 -26 -87.5 -72.5t-32.5 -101.5h472q0 37 -15 70.5t-42 60t-63 43.5v0zM410 569q-11 0 -18 7.5
t-7 18.5q0 7 3 13t9 9.5t13 3.5t12.5 -3.5t9 -9.5t3.5 -13q0 -20 -19 -25q-3 -1 -6 -1v0zM612 569q-10 0 -17.5 7.5t-7.5 18.5q0 7 3.5 13t9 9.5t12.5 3.5q11 0 18.5 -7.5t7.5 -18.5t-7.5 -18.5t-18.5 -7.5v0zM277 83q0 -22 15.5 -38.5t37.5 -16.5h39q-1 -1 -1 -3t-0.5 -4
t-0.5 -3v-4v-110q0 -22 14.5 -37t35.5 -15t36 15t15 37v110q0 7 -2 14h94q-2 -7 -2 -14v-110q0 -22 15 -37t35.5 -15t35.5 15t15 37v110q0 7 -2 14h39q22 0 37.5 16.5t15.5 38.5v382h-472v-382v0zM193 465q-11 0 -20 -4t-16 -11t-11 -16.5t-4 -20.5v-223q0 -21 15 -36.5
t36 -15.5q13 0 25 7t18.5 19t6.5 26v223q0 14 -6.5 26t-18.5 19t-25 7v0zM833 465q-21 0 -35.5 -15t-14.5 -37v-223q0 -21 14.5 -36.5t35.5 -15.5t36 15.5t15 36.5v223q0 22 -15 37t-36 15v0zM629 673l40 62q1 1 1.5 3t0 3.5t-1.5 3t-2 2.5q-3 2 -6.5 1.5t-5.5 -3.5l-23 -35
l-9 -15l-10 -15q-48 19 -100 19t-100 -19l-19 30l-23 35q-5 7 -12 2t-2 -12l40 -62q-55 -26 -87.5 -72t-32.5 -101h472q0 27 -8.5 53.5t-24.5 48.5t-38 40.5t-49 30.5v0zM412 569q-11 0 -18.5 7.5t-7.5 18.5q0 7 3.5 13t9.5 9.5t13 3.5q5 0 9.5 -2t8 -5.5t5.5 -8t2 -10.5
q0 -20 -19 -25q-4 -1 -6 -1v0zM614 569q-10 0 -17.5 7.5t-7.5 18.5q0 7 3.5 13t9 9.5t12.5 3.5q5 0 10 -2t8 -5.5t5 -8t2 -10.5q0 -20 -19 -25q-3 -1 -6 -1v0zM614 569z" />
    <glyph glyph-name="uniE6D6" unicode="&#xe6d6;" 
d="M644 607q22 25 33.5 61t11.5 58v23q-9 -1 -24.5 -3.5t-51 -19t-57.5 -42.5t-33.5 -61.5t-11.5 -58.5v-23q3 1 9 1.5t23.5 5t33 11t35 19.5t32.5 29zM751 275q0 54 27 99t72 70q-19 28 -49 49.5t-59.5 32t-55.5 10.5q-34 0 -97 -21.5t-70.5 -21.5t-59 20t-92.5 20
q-19 0 -40 -4t-44.5 -14t-44 -25t-38 -39t-27.5 -54q-18 -53 -22 -114.5t11 -134t50 -138.5q83 -155 161 -155q21 0 50 9.5t57.5 19t48.5 9.5q13 0 27.5 -3.5t28 -9.5t27 -11.5t28.5 -9.5t28 -4q12 0 24.5 3.5t24 9.5t23.5 14t23 19t21 23t19 26q6 9 12 19.5t11.5 20.5
t11 21t10 20.5t8.5 18.5t7 16.5t5 13t4 8.5l1 2v6q-54 21 -88 70t-34 109zM751 275z" />
    <glyph glyph-name="uniE6DA" unicode="&#xe6da;" 
d="M426 498q19 20 19 48q0 13 -5 25.5t-14 21.5l-72 72q-19 19 -47.5 19t-47.5 -19l-20 -20l167 -167zM689 195l167 -166l19 19q10 10 15 22t5 26q0 9 -2 17.5t-6.5 16t-10.5 14.5l-72 71q-12 12 -29.5 16.5t-35.5 0t-30 -16.5zM313 102q185 -184 344 -184q37 0 69.5 10.5
t45.5 20t23 18.5l16 16l-167 167l-29 -29q-2 -2 -4.5 -3.5t-5.5 -2t-6 -0.5t-5.5 0.5t-5.5 2t-5 3.5l-251 251q-3 3 -5 7.5t-2 8.5q0 10 7 16l29 29l-167 167l-16 -16q-8 -8 -18.5 -23.5t-23 -61.5t-5.5 -97.5t52 -132.5t130 -167z" />
    <glyph glyph-name="uniE6E3" unicode="&#xe6e3;" 
d="M1018 425q-7 23 -38 28l-298 44l-130 262q-6 12 -13.5 19t-13.5 9t-13 2q-11 0 -21 -7t-14 -12.5t-7 -10.5l-130 -262l-293 -43q-32 -5 -40 -29q-3 -12 1.5 -24.5t17.5 -25.5l208 -202l-49 -288q-1 -7 -1.5 -12t1.5 -15.5t8 -17.5q9 -10 22.5 -12t28.5 5q1 0 2 1l265 139
l265 -139q4 -2 7.5 -3.5t7 -2.5t6.5 -1.5t7 -0.5q5 0 9.5 1.5t9 4t7.5 6.5q12 13 9 37l-51 298l214 207q23 23 16 45z" />
    <glyph glyph-name="uniE6EB" unicode="&#xe6eb;" 
d="M811 298zM965 38l2 -11q-10 49 -28.5 92.5t-48.5 82t-67 61.5q-2 1 -4.5 2.5t-4.5 2.5t-4.5 2t-3.5 2l-4 2l-2 2t-1.5 2t-1 2.5t-0.5 2.5q0 6 14 15q41 33 64.5 81t23.5 103q0 99 -70 169t-169 70q-77 0 -141 -47q-52 24 -109 24q-54 0 -102.5 -20.5t-83.5 -55.5
t-55.5 -83.5t-20.5 -101.5q0 -46 15.5 -89t43 -76.5t64.5 -56.5q-88 -38 -146 -116.5t-66 -176.5l-1 -2v-4v-5v-2q1 -5 1 -7q8 -23 32 -23h23h591h5h6h8h4q7 0 13.5 3t11.5 8t7 12q0 1 0.5 3t0.5 4q0 10 -1 13q-8 98 -66 176.5t-146 116.5q57 35 90 94t33 127q0 30 -6 58
t-18 52.5t-28.5 46.5t-36.5 40q37 20 78 20q71 0 121 -50t50 -121q0 -48 -25 -88t-66 -62q-7 -3 -13 -8.5t-10.5 -12t-6.5 -14.5t-2 -16q0 -17 9 -31.5t23 -20.5q37 -14 68 -38.5t52.5 -57.5t30.5 -72h-72q-14 0 -24 -10t-10 -24q0 -9 4.5 -17t12.5 -12.5t17 -4.5h84h7h23
q6 0 11 1.5t9 5t7.5 7.5t5 9t1.5 11t-2 11z" />
    <glyph glyph-name="uniE6F4" unicode="&#xe6f4;" 
d="M84 449q0 -3 0.5 -8.5t8 -15t21.5 -10.5q133 4 166 14q2 1 6.5 2.5t11.5 9t7 17.5v88q0 2 1 4t4.5 7t7.5 9t12 7t17 3h362h2q1 0 4.5 -1t6.5 -2t7 -3.5t7.5 -6t6 -8.5t3.5 -11v-88q0 -3 0.5 -8t8 -13.5t21.5 -10.5l158 -11q0 1 2.5 0t6.5 1t8 4.5t8 9.5t5 17q0 8 -1 21
t-8.5 48t-20.5 64t-40.5 58.5t-63.5 41.5q-2 1 -5 2t-14.5 4.5t-25 7t-36 7.5t-47.5 7.5t-60.5 6t-74 3.5t-88 0t-102.5 -4q-4 -1 -12 -1.5t-31.5 -4t-45 -8.5t-49.5 -15t-50 -22.5t-41 -31.5t-27 -42q-6 -6 -21 -53q-13 -44 -16 -85zM534 -63l1 90q6 0 15 1t32 9.5t40.5 23
t32.5 44.5t16 70q0 5 -0.5 14.5t-8 32.5t-21 41.5t-44 35t-72.5 19.5h-5q-3 0 -12 -0.5t-18 -2.5t-21 -6.5t-23 -11.5t-22.5 -18.5t-20 -26t-15 -36t-9.5 -47.5v-9q0 -6 3.5 -22.5t11 -31.5t24.5 -33.5t42 -31.5l-2 -104h-172v-60q0 -1 -0.5 -3t-3.5 -7.5t-7.5 -10t-13.5 -9
t-20 -6.5q-3 0 -8.5 0.5t-18 10t-18.5 26.5v57q-2 0 -5 -0.5t-11.5 -1t-16.5 1t-19.5 7t-20.5 15.5q-2 2 -5 6t-8 14t-5 17v103q1 26 19 42l256 269v62q2 4 5 9.5t15 14.5t26 8h4q2 0 8.5 -2t12 -5t11 -10.5t8.5 -17.5v-59h110v65q2 4 6 9t16 13.5t25 6.5h3q3 0 9.5 -2
t12 -5t11 -10t8.5 -17v-60l255 -269q19 -22 19 -47v-91q0 -1 -0.5 -3t-1.5 -7.5t-3 -11t-6.5 -12.5t-10 -12.5t-14.5 -10.5t-20 -7l-35 -3v-52q0 -1 -0.5 -3.5t-3 -8.5t-7 -11t-13.5 -10t-21 -8h-5q-2 0 -8.5 2.5t-12.5 6t-12 11.5t-9 18l1 56zM443 48q4 -3 12 -7.5t35 -11
t58 -4.5l16 -89h-128zM451 173q-1 -2 -0.5 -6.5t4 -16.5t10.5 -21.5t23 -19t37 -12.5q3 -1 7.5 -0.5t16 4.5t21 11t18.5 22.5t12 37.5q0 3 -0.5 8t-4.5 17.5t-11 22t-22.5 18t-36.5 8.5q-62 0 -73 -66q-1 -4 -1 -7z" />
    <glyph glyph-name="uniE6FE" unicode="&#xe6fe;" 
d="M625 -3l-81 82q-11 11 -27.5 11t-26.5 -11l-37 -36q-11 -11 -27 -11t-27 11l-145 145q-11 11 -11 27t11 27l36 36q6 6 8.5 13t2.5 14q0 4 -0.5 8t-2 7t-3.5 6.5t-5 6.5l-81 81q-11 11 -27.5 11t-27.5 -11l-36 -36q-1 -1 -2 -1q-2 -1 -3 -2l-3 -3t-4 -6q-70 -73 -24 -180
q34 -78 136 -180q153 -153 258 -153q57 0 101 42q7 2 11 10q1 1 1 2l36 36q12 11 12 27t-12 27zM172 396q9 9 18 0l82 -82q4 -3 4 -9q0 -1 -0.5 -3t-1.5 -3.5t-2 -2.5l-27 -27l-100 100zM236 24q-99 99 -130 172q-41 93 21 155l101 -101q-13 -18 -10.5 -41t18.5 -40
l145 -145q9 -9 20.5 -13.5t24.5 -4.5q10 0 19 2.5t16 7.5l101 -100q-37 -38 -86 -38q-47 0 -106.5 36.5t-133.5 109.5zM607 -39l-27 -27l-100 99l28 28q9 9 18 0l81 -82q9 -9 0 -18zM628 749q-87 0 -162 -43.5t-118.5 -118t-43.5 -162t43.5 -162.5t118.5 -118t162.5 -43
t162 43t118 118t43.5 162q0 66 -25.5 126t-69 103.5t-103.5 69t-126 25.5zM628 126q-124 0 -212 87.5t-88 211.5t88 212t212 88t212 -88t88 -212t-89 -213q-88 -86 -211 -86zM821 357q-11 4 -16 -7t-11.5 -22t-14 -21t-16.5 -18.5t-19 -16t-21 -14t-23 -11.5q-73 -29 -147 2
q-11 5 -15.5 -6.5t6.5 -15.5q41 -18 84 -18q21 0 41.5 4t39.5 12q83 34 118 116q2 5 0 9.5t-6 6.5zM688 485h72q5 0 8.5 3.5t3.5 8.5t-3.5 8.5t-8.5 3.5h-72q-3 0 -5.5 -1.5t-4.5 -4t-2 -6.5q0 -5 3.5 -8.5t8.5 -3.5zM544 461v72q0 5 -3.5 8.5t-8.5 3.5q-3 0 -5.5 -1.5
t-4.5 -4t-2 -6.5v-72q0 -5 3.5 -8.5t8.5 -3.5q4 0 6.5 2t4 4.5t1.5 5.5z" />
    <glyph glyph-name="uniE800" unicode="&#xe800;" 
d="M512 812q-139 0 -257 -68.5t-186.5 -186.5t-68.5 -257t68.5 -257t186.5 -186.5t257 -68.5t257 68.5t186.5 186.5t68.5 257t-68.5 257t-186.5 186.5t-257 68.5zM716 235q0 1 -56 -33t-112 -69l-56 -35q-8 -5 -20.5 -9t-27.5 -5t-28.5 3.5t-22 18.5t-8.5 37v291
q-2 35 17 51.5t43 15t44 -14.5q2 -1 59 -36.5t114 -70.5l56 -35q35 -26 33 -56.5t-35 -52.5z" />
    <glyph glyph-name="uniE911" unicode="&#xe911;" 
d="M510.5 748q-90.5 0 -173 -35.5t-142 -95t-95 -142t-35.5 -173t35.5 -173t95 -142t142 -94.5t173 -35t173 35t142 94.5t94.5 142t35 173t-35 173t-94.5 142t-142 95t-173 35.5zM406 111v381l291 -198z" />
    <glyph glyph-name="uniE934" unicode="&#xe934;" 
d="M811 298zM965 38l2 -11q-10 49 -28.5 92.5t-48.5 82t-67 61.5q-2 1 -4.5 2.5t-4.5 2.5t-4.5 2t-3.5 2l-4 2l-2 2t-1.5 2t-1 2.5t-0.5 2.5q0 6 14 15q41 33 64.5 81t23.5 103q0 99 -70 169t-169 70q-77 0 -141 -47q-52 24 -109 24q-54 0 -102.5 -20.5t-83.5 -55.5
t-55.5 -83.5t-20.5 -101.5q0 -46 15.5 -89t43 -76.5t64.5 -56.5q-88 -38 -146 -116.5t-66 -176.5l-1 -2v-4v-5v-2q1 -5 1 -7q8 -23 32 -23h23h591h5h6h8h4q7 0 13.5 3t11.5 8t7 12q0 1 0.5 3t0.5 4q0 10 -1 13q-8 98 -66 176.5t-146 116.5q57 35 90 94t33 127q0 30 -6 58
t-18 52.5t-28.5 46.5t-36.5 40q37 20 78 20q71 0 121 -50t50 -121q0 -48 -25 -88t-66 -62q-7 -3 -13 -8.5t-10.5 -12t-6.5 -14.5t-2 -16q0 -17 9 -31.5t23 -20.5q37 -14 68 -38.5t52.5 -57.5t30.5 -72h-72q-14 0 -24 -10t-10 -24q0 -9 4.5 -17t12.5 -12.5t17 -4.5h84h7h23
q6 0 11 1.5t9 5t7.5 7.5t5 9t1.5 11t-2 11z" />
    <glyph glyph-name="uniEB92" unicode="&#xeb92;" horiz-adv-x="1025" 
d="M512 553q-58 137 -170 181q-104 41 -199 -13q-102 -59 -132 -194q-11 -47 -11 -97q0 -37 8 -70t21 -58.5t34 -50.5t41 -43t48 -38t49.5 -33t51 -31.5t47.5 -29.5q81 -54 141.5 -122.5t71.5 -106.5q8 35 71 105t140 126q20 14 53.5 35t58.5 37.5t56 39t52.5 46.5t41 53
t29 65.5t9.5 77.5q-1 130 -63.5 213t-145.5 99t-170.5 -33t-132.5 -158z" />
    <glyph glyph-name="uF0001" unicode="&#xf0001;" 
d="M512 722q-115 0 -212.5 -56.5t-154 -154t-56.5 -211.5q0 -86 33.5 -164.5t90 -135t135 -89.5t164.5 -33q114 0 211.5 56.5t154 153.5t56.5 212q0 69 -21.5 133t-60.5 116t-91 91t-116.5 60.5t-132.5 21.5zM679 328v-58h-110v-83h111v-55h-112v-111h-111v111h-114v55h114
v84h-114v56h113l-136 228h73l121 -196l118 196h70l-134 -227h111z" />
    <glyph glyph-name="uF000C" unicode="&#xf000c;" horiz-adv-x="1000" 
d="M920 78q-16 0 -19 16q-1 1 -1.5 4t-3 10t-5.5 15t-9 19.5t-12.5 22.5t-16.5 24t-21 25q-27 28 -61 49.5t-74 36.5t-86.5 23.5t-97.5 9.5v-162q0 -6 -3 -10.5t-8 -7t-11 -2.5t-10 4l-383 277q-4 3 -6.5 7.5t-2.5 9.5q0 10 9 16l383 279q10 7 21 1.5t11 -17.5v-173
q8 0 16.5 -0.5t20.5 -2t24 -3.5t27 -5t29 -7q60 -15 109 -42.5t87 -66.5q118 -119 114 -330q0 -8 -5 -13.5t-13 -6.5h-2zM493 374q33 0 64 -3t60.5 -8t56.5 -13t52 -18q40 -17 74.5 -40t61.5 -53q17 -18 31 -38q-20 122 -95 199q-38 38 -86.5 64t-94.5 35.5t-72 13t-47 3.5
q-3 0 -5 -1q-8 0 -14 6t-6 14v153l-330 -239l330 -239v144q0 2 0.5 4.5t2 5t3 4.5t3.5 3l6 2q2 1 5 1z" />
    <glyph glyph-name="uF004C" unicode="&#xf004c;" 
d="M989 425h-357l134 133q-20 20 -43 37t-48 29.5t-51 21t-54 13t-57 4.5q-47 0 -92 -12t-85.5 -35.5t-74.5 -57.5q-10 -10 -19 -20.5t-17.5 -22t-15.5 -23.5t-13.5 -24t-12 -25t-9.5 -26.5t-7.5 -27t-5.5 -27t-3 -28t-1 -28.5q0 -71 27 -136.5t77.5 -116t115.5 -77.5
t136.5 -27t136.5 27t116 78q8 8 16 17l89 -78q-66 -76 -159 -119t-199 -43q-96 0 -184 37.5t-152 101t-101.5 151.5t-37.5 185t37.5 185t101.5 151.5t152 101.5t184.5 38t183.5 -37t153 -103l139 140v-357z" />
    <glyph glyph-name="uF0050" unicode="&#xf0050;" 
d="M902 419v-236h-273v-273h-236v273h-273v236h273v273h236v-273h273z" />
    <glyph glyph-name="uF0066" unicode="&#xf0066;" 
d="M903 747l-559 -126q-1 0 -2.5 -0.5t-5.5 -2t-8 -3.5t-9 -5.5t-8.5 -7.5t-6 -10t-2.5 -13v-568q-33 10 -69 10q-64 0 -109 -24.5t-45 -59.5t45 -59.5t108.5 -24.5t108.5 24.5t45 59.5v445l475 104v-349q-33 9 -70 9q-41 0 -76.5 -11t-56 -30.5t-20.5 -42t20.5 -42
t56 -30.5t76.5 -11q64 0 109 24.5t45 58.5v643q0 17 -12 29.5t-30 12.5v0zM903 747z" />
    <glyph glyph-name="uF0070" unicode="&#xf0070;" 
d="M527.5 763q-90.5 0 -173.5 -35t-142.5 -95t-95 -142.5t-35.5 -173.5t35.5 -174t95 -142.5t142.5 -95t173.5 -35.5t173.5 35.5t143 95t95 142.5t35 174t-35 173.5t-95 142.5t-143 95t-173.5 35zM528 21q-8 0 -15.5 2t-13.5 6t-11.5 9t-9 11.5t-5.5 13.5t-2 15
q0 24 16.5 40.5t40 16.5t40 -16.5t16.5 -40t-16.5 -40.5t-39.5 -17zM584 263q0 -24 -16.5 -40.5t-40 -16.5t-40 16.5t-16.5 40.5v243q0 23 16.5 40t40 17t40 -17t16.5 -40v-243z" />
    <glyph glyph-name="uF0071" unicode="&#xf0071;" 
d="M529.5 764q-91.5 0 -175 -36t-143.5 -96t-95.5 -143.5t-35.5 -175t35.5 -174.5t95.5 -143t143.5 -96t175 -36t175 36t143.5 96t95.5 143t35.5 174.5t-35.5 175t-95.5 143.5t-143.5 96t-175 36zM747 335l-221 -222q-17 -17 -41 -16q-6 -1 -11.5 0.5t-10.5 3.5t-10 5t-9 7
l-117 117q-17 17 -17 40.5t17 40.5t41 17t40 -17l77 -76l181 181q17 17 40.5 17t40.5 -17t17 -41t-17 -40z" />
    <glyph glyph-name="uF0072" unicode="&#xf0072;" 
d="M752 -31h-510q-25 0 -42 -19t-17 -47q0 -19 8 -34.5t21.5 -24t29.5 -8.5h510q25 0 42 19.5t17 47.5q0 18 -8 33.5t-21.5 24t-29.5 8.5zM987 566q-6 6 -13 11q-28 19 -61 19q-44 0 -75.5 -31t-31.5 -76q0 -54 44 -86q-8 -9 -16.5 -18.5t-24 -24.5t-29 -25.5t-27.5 -17
t-23 -3.5q-18 5 -31 39.5t-19.5 82.5t-9 74t-3.5 45q39 6 64.5 36t25.5 69q0 45 -31 76t-75.5 31t-75.5 -31t-31 -76q0 -15 4 -29t11.5 -26t18 -22t22.5 -17q-5 -13 -11 -26.5t-17 -36t-21 -39t-22 -29t-21 -12.5q-12 0 -26.5 18t-28.5 46t-22 46t-14 35q24 14 38.5 38.5
t14.5 53.5q0 45 -31 76t-75.5 31t-75.5 -31t-31 -76q0 -23 9 -43.5t25.5 -35.5t37.5 -22q10 -4 20 -5q-1 -9 -2.5 -23.5t-7.5 -53.5t-13.5 -69t-19.5 -56t-26 -29q-18 -5 -43.5 12t-40.5 33.5t-27 33.5q45 32 45 87q0 45 -31.5 76t-75.5 31q-13 0 -26 -3q-49 -5 -68 -53
q-13 -24 -13 -51q0 -36 22 -64q12 -18 31 -28q25 -14 54 -14q7 0 16 1q2 -15 5 -34.5t10.5 -60.5t16.5 -76.5t20 -71t25.5 -57t29.5 -22.5q24 -1 548 -1q11 0 22.5 11t21 29t19 41.5t17.5 49.5t14.5 52t12 49.5t9 41.5t5.5 29l2 10l1 9h4h4h3q14 0 27.5 3.5t25.5 10.5
q7 2 13.5 5.5t12 9t10 13.5t7.5 18q2 4 3 9l4 8l2 10t1.5 9.5t0.5 9.5q0 46 -33 77z" />
    <glyph glyph-name="uF0075" unicode="&#xf0075;" 
d="M919 351l-352 283q-14 12 -26.5 14t-21.5 -4.5t-14.5 -20.5t-5.5 -34v-143h-7q-80 0 -157 -43.5t-132.5 -112t-90 -155.5t-35.5 -171q0 -5 1.5 -9t4.5 -5.5t6.5 -0.5t7.5 4.5t8 10.5q109 193 341 193h53v-151q0 -35 21 -50.5t50 5.5l349 280q19 15 25.5 35t0 40t-25.5 35
z" />
    <glyph glyph-name="uF00A1" unicode="&#xf00a1;" 
d="M591 405q-9 0 -16.5 -10.5t-12 -28t-4.5 -38.5q0 -33 9.5 -55.5t23.5 -22.5q6 0 12.5 6t10.5 16.5t6.5 25t2.5 30.5q0 56 -22 74q-6 3 -10 3zM765 405q-9 0 -16.5 -10.5t-12 -28t-4.5 -38.5q0 -11 1.5 -21t3.5 -18.5t5 -15.5t6.5 -12t8 -8t8.5 -3q14 0 23.5 22.5t9.5 55
t-9.5 55t-23.5 22.5zM525 694q-1 0 -3.5 -0.5t-5.5 -0.5h-3l1 1q-141 42 -261 66q0 -3 1 -8t4 -21.5t5.5 -33t5.5 -39.5t5 -45q-81 -57 -127.5 -143.5t-46.5 -186.5q0 -111 57 -205.5t155 -149.5t213 -55q87 0 165.5 32.5t135.5 87.5t90.5 131t33.5 159q0 112 -56.5 206.5
t-154.5 149.5t-214 55zM525.5 -83q-103.5 0 -191.5 49t-139 133.5t-51 183.5q0 75 30 142.5t81 116.5t122 78t148.5 29t148 -29t121.5 -78t81.5 -116.5t30.5 -142.5q0 -99 -51 -183.5t-139 -133.5t-191.5 -49z" />
    <glyph glyph-name="uF00A8" unicode="&#xf00a8;" 
d="M681 161q45 50 67 113.5t20 127.5t-28 126t-74 111q-50 50 -115.5 76t-131.5 26t-131.5 -26t-115.5 -76q-67 -67 -91 -157t0 -180t91 -157q64 -65 150 -89.5t173 -5t155 79.5l265 -266l31 31zM649 190l-28 -29q-90 -79 -211.5 -75.5t-207.5 89.5q-90 90 -90 217t90 216.5
t217 89.5t216 -90q86 -85 90 -206.5t-76 -211.5z" />
    <glyph glyph-name="uF00AA" unicode="&#xf00aa;" 
d="M509 740q-89 0 -170.5 -34.5t-140 -93.5t-93.5 -140t-35 -170.5t35 -170.5t93.5 -140t140 -93.5t170.5 -34.5t170.5 34.5t140 93.5t93.5 140t35 170q0 60 -16 117t-44 105t-68.5 88.5t-88.5 69t-105 44t-117 15.5zM757 244h-496v115h496v-115z" />
    <glyph glyph-name="uF00AB" unicode="&#xf00ab;" 
d="M510 742q-72 0 -139 -22.5t-121 -63t-95 -94.5t-63 -121t-22 -139q0 -89 35 -170.5t93.5 -140.5t140 -94t171.5 -35q71 0 138.5 22.5t121.5 63t94.5 94.5t62.5 121t22 139q0 51 -11.5 100.5t-33 93t-51.5 81.5t-68.5 68t-81.5 52t-92.5 33.5t-100.5 11.5zM510 15
l-172 219h127v355h90v-355h127z" />
    <glyph glyph-name="uF00B1" unicode="&#xf00b1;" 
d="M310 345zM259 345q0 14 7 25.5t18.5 18t25.5 6.5q20 0 35 -14.5t15 -35.5t-15 -36t-35.5 -15t-35.5 15t-15 36zM512 395q-14 0 -25.5 -6.5t-18.5 -18t-7 -25.5t7 -25.5t18.5 -18.5t25 -7t25.5 7t18.5 18.5t6.5 25.5q0 33 -30 46q-10 4 -20 4zM891 673h-758
q-21 0 -36 -14.5t-15 -35.5v-556q0 -14 7 -25.5t18.5 -18.5t25.5 -7h263l102 -152h27l102 152h264q10 0 19.5 4t16 11t10.5 16.5t4 19.5v556q0 21 -14.5 35.5t-35.5 14.5zM891 92q0 -7 -3.5 -12.5t-9.5 -9t-12 -3.5h-205l1 1h-59l-2 -1l-31 -51l-59 -96l-58 96l-31 51l-60 1
v-1h-204q-5 0 -10 2t-8 5.5t-5 8t-2 9.5v506q0 10 7 17.5t18 7.5h708q10 0 17.5 -7.5t7.5 -17.5v-506zM714 395q-21 0 -36 -14.5t-15 -35.5q0 -14 7 -25.5t18.5 -18.5t25.5 -7q10 0 19.5 4t16 11t10.5 16.5t4 19.5t-4 19.5t-10.5 16t-16 10.5t-19.5 4z" />
    <glyph glyph-name="uF00B2" unicode="&#xf00b2;" 
d="M591 405q-9 0 -16.5 -10.5t-12 -28t-4.5 -38.5q0 -33 9.5 -55.5t23.5 -22.5q6 0 12.5 6t10.5 16.5t6.5 25t2.5 30.5q0 56 -22 74q-6 3 -10 3zM765 405q-9 0 -16.5 -10.5t-12 -28t-4.5 -38.5q0 -11 1.5 -21t3.5 -18.5t5 -15.5t6.5 -12t8 -8t8.5 -3q14 0 23.5 22.5t9.5 55
t-9.5 55t-23.5 22.5zM525 694q-1 0 -3.5 -0.5t-5.5 -0.5h-3l1 1q-141 42 -261 66q0 -3 1 -8t4 -21.5t5.5 -33t5.5 -39.5t5 -45q-81 -57 -127.5 -143.5t-46.5 -186.5q0 -111 57 -205.5t155 -149.5t213 -55q87 0 165.5 32.5t135.5 87.5t90.5 131t33.5 159q0 112 -56.5 206.5
t-154.5 149.5t-214 55zM525.5 -83q-103.5 0 -191.5 49t-139 133.5t-51 183.5q0 75 30 142.5t81 116.5t122 78t148.5 29t148 -29t121.5 -78t81.5 -116.5t30.5 -142.5q0 -99 -51 -183.5t-139 -133.5t-191.5 -49z" />
    <glyph glyph-name="uF00B7" unicode="&#xf00b7;" 
d="M448 155l-191 191l-35 -35l226 -226l35 35l296 296l-35 34zM513 743q-52 0 -101.5 -11.5t-93 -33.5t-81.5 -52t-68.5 -68.5t-52 -81.5t-33 -92.5t-11.5 -101.5q0 -90 35 -171.5t94 -140.5t140.5 -94t171 -35t171.5 35t141 94t94 140.5t35 171.5q0 45 -9 89t-26 83
t-41 74.5t-53.5 65.5t-65 54t-75 40.5t-83 25.5t-88.5 9zM514 -99q-109 0 -201 53.5t-145.5 146t-53.5 200.5q0 81 31.5 155.5t85 128t127.5 85t156 31.5q108 0 200 -53.5t145.5 -145.5t53.5 -201q0 -33 -5 -65t-15 -61.5t-24.5 -57t-32.5 -52t-40 -46.5t-46.5 -40
t-52.5 -32.5t-57.5 -24.5t-61.5 -15.5t-64 -5.5z" />
    </font>
</defs>
</svg>
